<svg width="90" height="90" viewBox="0 0 90 90" fill="none" xmlns="http://www.w3.org/2000/svg">
  <!-- Background with more rounded corners -->
  <rect width="90" height="90" x="2" y="2" rx="16" fill="#1E2466"/>
  
  <!-- Larger Centered E-Cell Logo -->
  <g transform="translate(-12, -12) scale(1.3)">
    <svg width="90" height="90" viewBox="0 0 315 160" fill="none" xmlns="http://www.w3.org/2000/svg">
      <path d="M111 19C144.33 19 177.66 19 212 19C212 29.89 212 40.78 212 52C205.4 52 198.8 52 192 52C192 57.94 192 63.88 192 70C198.6 70 205.2 70 212 70C212 83.2 212 96.4 212 110C214.97 110 217.94 110 221 110C221 113.3 221 116.6 221 120C217.7 120 214.4 120 211 120C211 117.03 211 114.06 211 111C205.06 111 199.12 111 193 111C193 116.94 193 122.88 193 129C169.24 129 145.48 129 121 129C121 123.06 121 117.12 121 111C144.643 109.562 168.325 109.904 192 110C192 105.71 192 101.42 192 97C172.86 97 153.72 97 134 97C134 91.72 134 86.44 134 81C148.85 81 163.7 81 179 81C179 76.38 179 71.76 179 67C164.48 67 149.96 67 135 67C135 61.72 135 56.44 135 51C153.81 51 172.62 51 192 51C192 46.71 192 42.42 192 38C162.3 38 132.6 38 102 38C102 35.03 102 32.06 102 29C104.97 29 107.94 29 111 29C111 25.7 111 22.4 111 19Z" fill="#FFFFFF"/>
      <path d="M135 52C152.82 52 170.64 52 189 52C189.495 60.415 189.495 60.415 190 69C190.495 69.99 190.495 69.99 191 71C192.216 71.0606 193.431 71.1212 194.684 71.1836C196.268 71.268 197.853 71.3526 199.438 71.4375C200.24 71.4768 201.042 71.5161 201.869 71.5566C207.887 71.8867 207.887 71.8867 209 73C209.16 75.6643 209.259 78.3056 209.316 80.9727C209.337 81.7703 209.358 82.5679 209.379 83.3898C209.445 85.9472 209.504 88.5048 209.562 91.0625C209.606 92.7923 209.649 94.5221 209.693 96.252C209.801 100.501 209.9 104.751 210 109C204.06 109 198.12 109 192 109C192 104.71 192 100.42 192 96C172.53 96 153.06 96 133 96C133 90.72 133 85.44 133 80C147.85 80 162.7 80 178 80C178 75.38 178 70.76 178 66C163.48 66 148.96 66 134 66C134.99 65.34 135.98 64.68 137 64C136.34 63.67 135.68 63.34 135 63C135 59.37 135 55.74 135 52Z" fill="#C38C3F"/>
      <path d="M103 48C108.94 48 114.88 48 121 48C121 69.45 121 90.9 121 113C115.06 113 109.12 113 103 113C103 91.55 103 70.1 103 48Z" fill="#C48B3E"/>
    </svg>
  </g>
</svg>