<svg width="335" height="255" viewBox="0 0 335 255" fill="none" xmlns="http://www.w3.org/2000/svg">
<g clip-path="url(#clip0_0_1)">
<path d="M39.0938 194C37.9375 194 37.0938 193.734 36.5625 193.203C36.0312 192.672 35.7656 191.828 35.7656 190.672V138.969C35.7656 137.812 36.0312 136.984 36.5625 136.484C37.0938 135.953 37.9375 135.688 39.0938 135.688H69.6094C70.4844 135.688 71.1094 136.016 71.4844 136.672C71.8906 137.328 72.0938 138.391 72.0938 139.859V142.391C72.0938 143.859 71.8906 144.922 71.4844 145.578C71.1094 146.234 70.4844 146.562 69.6094 146.562H48.6094V158.656H67.3594C68.2344 158.656 68.8594 158.984 69.2344 159.641C69.6406 160.297 69.8438 161.359 69.8438 162.828V165.406C69.8438 166.875 69.6406 167.938 69.2344 168.594C68.8594 169.25 68.2344 169.578 67.3594 169.578H48.6094V183.078H69.6562C70.5312 183.078 71.1562 183.406 71.5312 184.062C71.9375 184.719 72.1406 185.766 72.1406 187.203V189.828C72.1406 191.297 71.9375 192.359 71.5312 193.016C71.1562 193.672 70.5312 194 69.6562 194H39.0938ZM100.5 176.328C99.625 176.328 98.9844 176 98.5781 175.344C98.1719 174.688 97.9688 173.625 97.9688 172.156V171.594C97.9688 170.125 98.1719 169.062 98.5781 168.406C98.9844 167.719 99.625 167.375 100.5 167.375H117.469C118.344 167.375 118.969 167.719 119.344 168.406C119.75 169.062 119.953 170.125 119.953 171.594V172.156C119.953 173.625 119.75 174.688 119.344 175.344C118.969 176 118.344 176.328 117.469 176.328H100.5ZM173.578 194.703C164.203 194.703 157.281 192.266 152.812 187.391C148.375 182.516 146.156 174.938 146.156 164.656C146.156 144.875 155.438 134.984 174 134.984C176.531 134.984 179.156 135.234 181.875 135.734C184.594 136.234 186.859 136.938 188.672 137.844C190.516 138.719 191.438 139.703 191.438 140.797C191.438 141.578 191.125 142.609 190.5 143.891C189.875 145.141 189.125 146.25 188.25 147.219C187.406 148.188 186.656 148.672 186 148.672C185.844 148.672 185.422 148.516 184.734 148.203C183.234 147.578 181.656 147.062 180 146.656C178.375 146.219 176.297 146 173.766 146C168.859 146 165.219 147.562 162.844 150.688C160.5 153.781 159.328 158.469 159.328 164.75C159.328 171.031 160.516 175.766 162.891 178.953C165.266 182.141 168.828 183.734 173.578 183.734C176.047 183.734 178.188 183.484 180 182.984C181.844 182.484 183.641 181.844 185.391 181.062C185.484 181.031 185.766 180.922 186.234 180.734C186.703 180.516 187.047 180.406 187.266 180.406C188.078 180.406 188.859 180.891 189.609 181.859C190.359 182.797 190.969 183.875 191.438 185.094C191.906 186.281 192.141 187.141 192.141 187.672C192.141 189.203 191.109 190.5 189.047 191.562C187.016 192.625 184.547 193.422 181.641 193.953C178.766 194.453 176.078 194.703 173.578 194.703ZM219.328 194.703C212.016 194.703 206.562 192.75 202.969 188.844C199.375 184.906 197.578 179.453 197.578 172.484C197.578 164.641 199.375 158.891 202.969 155.234C206.562 151.578 211.516 149.75 217.828 149.75C222.016 149.75 225.438 150.703 228.094 152.609C230.781 154.516 232.734 157.078 233.953 160.297C235.203 163.516 235.828 167.156 235.828 171.219C235.828 171.688 235.547 172.312 234.984 173.094C234.453 173.875 233.844 174.578 233.156 175.203C232.469 175.828 231.938 176.141 231.562 176.141H210.328C210.609 179.328 211.547 181.594 213.141 182.938C214.766 184.25 217.016 184.906 219.891 184.906C221.453 184.906 222.859 184.734 224.109 184.391C225.391 184.016 226.75 183.531 228.188 182.938C229.062 182.531 229.656 182.328 229.969 182.328C230.531 182.328 231.141 182.734 231.797 183.547C232.484 184.328 233.062 185.234 233.531 186.266C234.031 187.297 234.281 188.094 234.281 188.656C234.281 189.938 233.406 191.031 231.656 191.938C229.938 192.844 227.891 193.531 225.516 194C223.172 194.469 221.109 194.703 219.328 194.703ZM223.828 167.938C223.828 165.375 223.328 163.328 222.328 161.797C221.328 160.234 219.828 159.453 217.828 159.453C213.703 159.453 211.203 162.281 210.328 167.938H223.828ZM256.5 194.703C252.531 194.703 249.5 193.594 247.406 191.375C245.344 189.125 244.312 185.719 244.312 181.156V133.859C244.312 132.047 245.984 131.141 249.328 131.141H251.672C253.391 131.141 254.641 131.375 255.422 131.844C256.234 132.281 256.641 132.953 256.641 133.859V181.297C256.641 182.578 256.875 183.5 257.344 184.062C257.812 184.625 258.594 184.906 259.688 184.906C259.969 184.906 260.391 184.844 260.953 184.719C261.109 184.688 261.266 184.656 261.422 184.625C261.578 184.594 261.75 184.578 261.938 184.578C262.406 184.578 262.828 185 263.203 185.844C263.609 186.656 263.922 187.578 264.141 188.609C264.359 189.609 264.469 190.266 264.469 190.578C264.469 193.328 261.812 194.703 256.5 194.703ZM281.344 194.703C277.375 194.703 274.344 193.594 272.25 191.375C270.188 189.125 269.156 185.719 269.156 181.156V133.859C269.156 132.047 270.828 131.141 274.172 131.141H276.516C278.234 131.141 279.484 131.375 280.266 131.844C281.078 132.281 281.484 132.953 281.484 133.859V181.297C281.484 182.578 281.719 183.5 282.188 184.062C282.656 184.625 283.438 184.906 284.531 184.906C284.812 184.906 285.234 184.844 285.797 184.719C285.953 184.688 286.109 184.656 286.266 184.625C286.422 184.594 286.594 184.578 286.781 184.578C287.25 184.578 287.672 185 288.047 185.844C288.453 186.656 288.766 187.578 288.984 188.609C289.203 189.609 289.312 190.266 289.312 190.578C289.312 193.328 286.656 194.703 281.344 194.703Z" fill="#FFFFFF"/>
<path d="M212 52C214.97 52 217.94 52 221 52C221 54.97 221 57.94 221 61C218.03 61 215.06 61 212 61C212 58.03 212 55.06 212 52Z" fill="#FFFFFF"/>
<path d="M212 111C214.97 111.495 214.97 111.495 218 112C218 113.32 218 114.64 218 116C216.02 116 214.04 116 212 116C212 114.35 212 112.7 212 111Z" fill="#FFFFFF"/>
<path d="M105 120C107.97 120 110.94 120 114 120C114 122.97 114 125.94 114 129C111.03 129 108.06 129 105 129C105 126.03 105 123.06 105 120Z" fill="#FFFFFF"/>
<path d="M205 19C206.98 19 208.96 19 211 19C211.33 20.98 211.66 22.96 212 25C209.69 25 207.38 25 205 25C205 23.02 205 21.04 205 19Z" fill="#FFFFFF"/>
<path d="M110 29C110 29.99 110 30.98 110 32C108.02 32.33 106.04 32.66 104 33C103.67 34.32 103.34 35.64 103 37C109.27 37 115.54 37 122 37C122 37.33 122 37.66 122 38C115.4 38 108.8 38 102 38C102 35.36 102 32.72 102 30C104.64 29.67 107.28 29.34 110 29Z" fill="#FFFFFF"/>
<path d="M106 123C107.98 123 109.96 123 112 123C112 124.98 112 126.96 112 129C110.02 129 108.04 129 106 129C106 127.02 106 125.04 106 123Z" fill="#FFFFFF"/>
<path d="M103 48C108.94 48 114.88 48 121 48C121 69.45 121 90.9 121 113C115.06 113 109.12 113 103 113C103 91.55 103 70.1 103 48Z" fill="#FFFFFF"/>
<path d="M212 109C214.97 109 217.94 109 221 109C221 111.97 221 114.94 221 118C218.03 118 215.06 118 212 118C212 115.03 212 112.06 212 109Z" fill="#FFFFFF"/>
<path d="M135 52C152.82 52 170.64 52 189 52C189.495 60.415 189.495 60.415 190 69C190.495 69.99 190.495 69.99 191 71C192.216 71.0606 193.431 71.1212 194.684 71.1836C196.268 71.268 197.853 71.3526 199.438 71.4375C200.24 71.4768 201.042 71.5161 201.869 71.5566C207.887 71.8867 207.887 71.8867 209 73C209.16 75.6643 209.259 78.3056 209.316 80.9727C209.337 81.7703 209.358 82.5679 209.379 83.3898C209.445 85.9472 209.504 88.5048 209.562 91.0625C209.606 92.7923 209.649 94.5221 209.693 96.252C209.801 100.501 209.9 104.751 210 109C204.06 109 198.12 109 192 109C192 104.71 192 100.42 192 96C172.53 96 153.06 96 133 96C133 90.72 133 85.44 133 80C147.85 80 162.7 80 178 80C178 75.38 178 70.76 178 66C163.48 66 148.96 66 134 66C134.99 65.34 135.98 64.68 137 64C136.34 63.67 135.68 63.34 135 63C135 59.37 135 55.74 135 52Z" fill="#FFFFFF"/>
<path d="M111 19C144.33 19 177.66 19 212 19C212 29.89 212 40.78 212 52C205.4 52 198.8 52 192 52C192 57.94 192 63.88 192 70C198.6 70 205.2 70 212 70C212 83.2 212 96.4 212 110C214.97 110 217.94 110 221 110C221 113.3 221 116.6 221 120C217.7 120 214.4 120 211 120C211 117.03 211 114.06 211 111C205.06 111 199.12 111 193 111C193 116.94 193 122.88 193 129C169.24 129 145.48 129 121 129C121 123.06 121 117.12 121 111C144.643 109.562 168.325 109.904 192 110C192 105.71 192 101.42 192 97C172.86 97 153.72 97 134 97C134 91.72 134 86.44 134 81C148.85 81 163.7 81 179 81C179 76.38 179 71.76 179 67C164.48 67 149.96 67 135 67C135 61.72 135 56.44 135 51C153.81 51 172.62 51 192 51C192 46.71 192 42.42 192 38C162.3 38 132.6 38 102 38C102 35.03 102 32.06 102 29C104.97 29 107.94 29 111 29C111 25.7 111 22.4 111 19Z" fill="#FFFFFF"/>
<path d="M192 70C198.6 70 205.2 70 212 70C212 83.2 212 96.4 212 110C214.97 110 217.94 110 221 110C221 113.3 221 116.6 221 120C217.7 120 214.4 120 211 120C211 117.03 211 114.06 211 111C205.06 111 199.12 111 193 111C193 116.94 193 122.88 193 129C169.24 129 145.48 129 121 129C121 123.06 121 117.12 121 111C144.643 109.562 168.325 109.904 192 110C192 105.71 192 101.42 192 97C192.33 97 192.66 97 193 97C193 101.29 193 105.58 193 110C198.94 110 204.88 110 211 110C211 97.13 211 84.26 211 71C204.73 71 198.46 71 192 71C192 70.67 192 70.34 192 70Z" fill="#FFFFFF"/>
<text x="60" y="230" font-family="Arial, sans-serif" font-size="36" font-weight="bold" fill="#FFFFFF">SUNSTONE</text>
</g>
<defs>
<clipPath id="clip0_0_1">
<rect width="335" height="255" fill="white"/>
</clipPath>
</defs>
</svg>