<svg xmlns="http://www.w3.org/2000/svg" version="1.1" width="385" height="297">
<path d="M0 0 C127.05 0 254.1 0 385 0 C385 98.01 385 196.02 385 297 C257.95 297 130.9 297 0 297 C0 198.99 0 100.98 0 0 Z " fill="#FDFEFE" transform="translate(0,0)" />
<path d="M0 0 C33.33 0 66.66 0 101 0 C101 10.89 101 21.78 101 33 C94.4 33 87.8 33 81 33 C81 38.94 81 44.88 81 51 C87.6 51 94.2 51 101 51 C101 64.2 101 77.4 101 91 C103.97 91 106.94 91 110 91 C110 94.3 110 97.6 110 101 C106.7 101 103.4 101 100 101 C100 98.03 100 95.06 100 92 C94.06 92 88.12 92 82 92 C82 97.94 82 103.88 82 110 C58.24 110 34.48 110 10 110 C10 104.06 10 98.12 10 92 C33.64332666 90.56240359 57.32481799 90.90448816 81 91 C81 86.71 81 82.42 81 78 C61.86 78 42.72 78 23 78 C23 72.72 23 67.44 23 62 C37.85 62 52.7 62 68 62 C68 57.38 68 52.76 68 48 C53.48 48 38.96 48 24 48 C24 42.72 24 37.44 24 32 C42.81 32 61.62 32 81 32 C81 27.71 81 23.42 81 19 C51.3 19 21.6 19 -9 19 C-9 16.03 -9 13.06 -9 10 C-6.03 10 -3.06 10 0 10 C0 6.7 0 3.4 0 0 Z " fill="#204070" transform="translate(142,30)" />
<path d="M0 0 C17.82 0 35.64 0 54 0 C54.495 8.415 54.495 8.415 55 17 C55.495 17.99 55.495 17.99 56 19 C57.21558594 19.06058594 58.43117187 19.12117188 59.68359375 19.18359375 C61.26824228 19.26798332 62.85287702 19.3526321 64.4375 19.4375 C65.23994141 19.47681641 66.04238281 19.51613281 66.86914062 19.55664062 C72.88671875 19.88671875 72.88671875 19.88671875 74 21 C74.16003488 23.66426685 74.25942889 26.30560428 74.31640625 28.97265625 C74.33718735 29.77029892 74.35796844 30.56794159 74.37937927 31.38975525 C74.44496158 33.94724611 74.50379967 36.5048428 74.5625 39.0625 C74.60567699 40.79232882 74.64929101 42.52214679 74.69335938 44.25195312 C74.80147739 48.50119504 74.90048535 52.75051289 75 57 C69.06 57 63.12 57 57 57 C57 52.71 57 48.42 57 44 C37.53 44 18.06 44 -2 44 C-2 38.72 -2 33.44 -2 28 C12.85 28 27.7 28 43 28 C43 23.38 43 18.76 43 14 C28.48 14 13.96 14 -1 14 C-0.01 13.34 0.98 12.68 2 12 C1.34 11.67 0.68 11.34 0 11 C0 7.37 0 3.74 0 0 Z " fill="#1C3E70" transform="translate(167,64)" />
<path d="M0 0 C6.6 0 13.2 0 20 0 C20 13.2 20 26.4 20 40 C22.97 40 25.94 40 29 40 C29 43.3 29 46.6 29 50 C25.7 50 22.4 50 19 50 C19 47.03 19 44.06 19 41 C13.06 41 7.12 41 1 41 C1 46.94 1 52.88 1 59 C-22.76 59 -46.52 59 -71 59 C-71 53.06 -71 47.12 -71 41 C-47.35667334 39.56240359 -23.67518201 39.90448816 0 40 C0 35.71 0 31.42 0 27 C0.33 27 0.66 27 1 27 C1 31.29 1 35.58 1 40 C6.94 40 12.88 40 19 40 C19 27.13 19 14.26 19 1 C12.73 1 6.46 1 0 1 C0 0.67 0 0.34 0 0 Z " fill="#C38C3F" transform="translate(223,81)" />
<path d="M0 0 C12.87 0 25.74 0 39 0 C39 2.64 39 5.28 39 8 C29.1 8 19.2 8 9 8 C9 13.61 9 19.22 9 25 C16.59 25 24.18 25 32 25 C32 27.64 32 30.28 32 33 C24.41 33 16.82 33 9 33 C9 38.94 9 44.88 9 51 C18.9 51 28.8 51 39 51 C39 53.64 39 56.28 39 59 C26.13 59 13.26 59 0 59 C0 39.53 0 20.06 0 0 Z " fill="#35537A" transform="translate(56,164)" />
<path d="M0 0 C5.94 0 11.88 0 18 0 C18 21.45 18 42.9 18 65 C12.06 65 6.12 65 0 65 C0 43.55 0 22.1 0 0 Z " fill="#C48B3E" transform="translate(133,56)" />
<path d="M0 0 C4.68428658 2.11321199 7.12904752 4.70823434 9.578125 9.3125 C10.578125 12.3125 10.578125 12.3125 10.578125 25.3125 C0.678125 25.3125 -9.221875 25.3125 -19.421875 25.3125 C-16.37454807 31.42259479 -16.37454807 31.42259479 -11.421875 35.3125 C-7.65887126 36.56683458 -4.14976591 36.41945422 -0.234375 36.375 C0.51521484 36.37048828 1.26480469 36.36597656 2.03710938 36.36132812 C3.88414883 36.34956354 5.73114713 36.33162865 7.578125 36.3125 C8.073125 40.2725 8.073125 40.2725 8.578125 44.3125 C5.39080246 44.40047281 2.20379712 44.45321341 -0.984375 44.5 C-1.87962891 44.52513672 -2.77488281 44.55027344 -3.69726562 44.57617188 C-11.0630532 44.6571146 -15.49816828 43.28037952 -21.671875 39.125 C-26.79628666 33.88412444 -27.59852957 28.95758469 -27.796875 21.875 C-27.62569445 15.71963267 -27.24978539 9.53647627 -23.02734375 4.72265625 C-16.26393029 -1.18462892 -8.66385054 -2.45941564 0 0 Z " fill="#1F3C68" transform="translate(231.421875,178.6875)" />
<path d="M0 0 C3.07666106 2.17176075 3.78029582 2.98254055 5.1875 6.25 C3.5375 7.9 1.8875 9.55 0.1875 11.25 C-2.30611571 10.04618552 -4.49393083 8.79571278 -6.8125 7.25 C-12.43420434 6.47934789 -17.26594014 6.42148579 -22.3125 9.125 C-27.09077426 14.15773857 -29.02084105 20.89184648 -29.3125 27.6875 C-29.02272296 34.7220874 -27.30099977 41.63388485 -22.375 46.8125 C-14.13509622 51.43488504 -5.90248251 50.86599689 3.1875 49.25 C3.6825 52.715 3.6825 52.715 4.1875 56.25 C-5.64914002 59.43957199 -17.23929908 60.13537775 -26.76171875 55.57421875 C-31.80584873 52.31715196 -35.46488669 47.61561454 -37.34375 41.8671875 C-39.25718361 31.18384983 -39.19384423 17.28565065 -33.3359375 7.87890625 C-25.25144613 -2.18056361 -12.09964061 -5.57424028 0 0 Z " fill="#1F3E6F" transform="translate(190.8125,164.75)" />
<path d="M0 0 C7.26 0 14.52 0 22 0 C22.01981934 1.52923096 22.03963867 3.05846191 22.06005859 4.6340332 C22.13602523 10.29777738 22.22475646 15.96126164 22.31738281 21.62475586 C22.35570954 24.07782873 22.39055582 26.53095851 22.421875 28.98413086 C22.46744507 32.50655485 22.52545321 36.02858575 22.5859375 39.55078125 C22.59748871 40.65086014 22.60903992 41.75093903 22.62094116 42.88435364 C22.64081085 43.90518539 22.66068054 44.92601715 22.68115234 45.9777832 C22.69447601 46.87713089 22.70779968 47.77647858 22.7215271 48.70307922 C22.85841974 51.27569896 22.85841974 51.27569896 25 54 C27.62697064 54.22137393 30.00893964 54.28162025 32.625 54.1875 C33.33140625 54.17396484 34.0378125 54.16042969 34.765625 54.14648438 C36.51074128 54.1111104 38.25546608 54.05730221 40 54 C40 56.64 40 59.28 40 62 C36.36908953 63.21030349 32.97248636 63.29950617 29.1875 63.375 C28.13852539 63.43107422 28.13852539 63.43107422 27.06835938 63.48828125 C23.20171201 63.5533885 20.71705954 63.19630506 17.61328125 60.7890625 C12.39069724 55.2151836 12.72633016 49.94392524 12.8046875 42.66796875 C12.8075174 41.67622147 12.81034729 40.68447418 12.81326294 39.66267395 C12.82443196 36.50415841 12.84953073 33.34592943 12.875 30.1875 C12.88503403 28.04232181 12.89415914 25.89713917 12.90234375 23.75195312 C12.92436061 18.50119216 12.9588681 13.25064462 13 8 C8.71 8 4.42 8 0 8 C0 5.36 0 2.72 0 0 Z " fill="#1A3B68" transform="translate(302,160)" />
<path d="M0 0 C7.26 0 14.52 0 22 0 C22.06058594 3.57457031 22.12117188 7.14914063 22.18359375 10.83203125 C22.24537028 14.28721256 22.30876334 17.74236069 22.37231445 21.19750977 C22.41567409 23.60210223 22.4573484 26.00672569 22.49731445 28.41137695 C22.55499189 31.86419016 22.61869385 35.31684719 22.68359375 38.76953125 C22.70030624 39.84773636 22.71701874 40.92594147 22.73423767 42.03681946 C22.75418289 43.03763046 22.77412811 44.03844147 22.79467773 45.06958008 C22.81799416 46.39195427 22.81799416 46.39195427 22.84178162 47.74104309 C22.9174752 50.1677108 22.9174752 50.1677108 24 53 C27.00313748 54.50156874 29.79067522 54.09281204 33.125 54.0625 C34.40632813 54.05347656 35.68765625 54.04445312 37.0078125 54.03515625 C37.99523437 54.02355469 38.98265625 54.01195312 40 54 C40 56.64 40 59.28 40 62 C36.20950966 63.18633667 32.51553971 63.23806219 28.5625 63.3125 C26.61537109 63.36857422 26.61537109 63.36857422 24.62890625 63.42578125 C20.32202674 62.92045308 18.87639783 62.22136265 16 59 C13.12277418 52.75170265 12.5895659 47.63473461 12.70703125 40.8125 C12.71127609 39.86938965 12.71552094 38.9262793 12.71989441 37.95458984 C12.7365643 34.96942482 12.77419425 31.98495782 12.8125 29 C12.82756196 26.96485356 12.84124771 24.92969645 12.85351562 22.89453125 C12.88642945 17.9294223 12.93813001 12.96482913 13 8 C8.71 8 4.42 8 0 8 C0 5.36 0 2.72 0 0 Z " fill="#1E3E6D" transform="translate(252,160)" />
<path d="M0 0 C12.21 0 24.42 0 37 0 C37 1.98 37 3.96 37 6 C27.43 6 17.86 6 8 6 C8 5.67 8 5.34 8 5 C16.91 5 25.82 5 35 5 C34.505 3.02 34.505 3.02 34 1 C23.11 1 12.22 1 1 1 C1.33 16.51 1.66 32.02 2 48 C2.99 48 3.98 48 5 48 C5.66 48 6.32 48 7 48 C7 48.66 7 49.32 7 50 C17.23 50 27.46 50 38 50 C38 52.31 38 54.62 38 57 C25.46 57 12.92 57 0 57 C0 38.19 0 19.38 0 0 Z " fill="#18325A" transform="translate(57,165)" />
<path d="M0 0 C3.0625 1.75 3.0625 1.75 5 5 C5.62424918 9.08548794 5.81017334 12.93795851 5 17 C1.9015891 20.7447052 0.05010572 21.89671091 -4.8125 22.375 C-8.11983012 22.30270863 -9.04807509 21.96995307 -12 20.125 C-14.82065259 15.71773033 -14.63689329 12.0951463 -14 7 C-12.0037288 -0.37084753 -6.8371363 -1.08963118 0 0 Z " fill="#EFEFEF" transform="translate(244,240)" />
<path d="M0 0 C13.86 0 27.72 0 42 0 C42 2.64 42 5.28 42 8 C28.14 8 14.28 8 0 8 C0 5.36 0 2.72 0 0 Z " fill="#1D3D6B" transform="translate(103,189)" />
<path d="M0 0 C6.6 0 13.2 0 20 0 C20 21.78 20 43.56 20 66 C27.92 66 35.84 66 44 66 C44 66.33 44 66.66 44 67 C36.08 67 28.16 67 20 67 C20 72.94 20 78.88 20 85 C43.76 85 67.52 85 92 85 C92 85.33 92 85.66 92 86 C67.91 86 43.82 86 19 86 C19 79.73 19 73.46 19 67 C12.73 67 6.46 67 0 67 C0 44.89 0 22.78 0 0 Z M1 1 C1 22.45 1 43.9 1 66 C6.94 66 12.88 66 19 66 C19 44.55 19 23.1 19 1 C13.06 1 7.12 1 1 1 Z " fill="#E3CCA5" transform="translate(132,55)" />
<path d="M0 0 C7.26 0 14.52 0 22 0 C22 16.17 22 32.34 22 49 C21.67 49 21.34 49 21 49 C21 33.16 21 17.32 21 1 C14.4 1 7.8 1 1 1 C2.21428988 2.44388571 2.21428988 2.44388571 5.81640625 2.09765625 C7.39846682 2.09098089 8.98051159 2.07901875 10.5625 2.0625 C11.77196289 2.05573242 11.77196289 2.05573242 13.00585938 2.04882812 C15.00393756 2.03700518 17.00197783 2.01906914 19 2 C19 4.31 19 6.62 19 9 C17.68 8.67 16.36 8.34 15 8 C15.00523682 8.93682617 15.01047363 9.87365234 15.01586914 10.83886719 C15.03308862 14.37256507 15.04553544 17.90621725 15.05493164 21.43994141 C15.05990685 22.95850333 15.06668941 24.4770606 15.07543945 25.99560547 C15.1262634 35.05422701 14.96778356 43.9789916 14 53 C13.67 53 13.34 53 13 53 C13 38.15 13 23.3 13 8 C8.71 8 4.42 8 0 8 C0 5.36 0 2.72 0 0 Z " fill="#40567C" transform="translate(302,160)" />
<path d="M0 0 C7.26 0 14.52 0 22 0 C22 15.51 22 31.02 22 47 C21.67 47 21.34 47 21 47 C20.67 33.47 20.34 19.94 20 6 C18.68 6 17.36 6 16 6 C16 6.66 16 7.32 16 8 C16.66 8 17.32 8 18 8 C17.67 9.32 17.34 10.64 17 12 C16.34 11.01 15.68 10.02 15 9 C14.67 22.86 14.34 36.72 14 51 C13.67 51 13.34 51 13 51 C13 36.81 13 22.62 13 8 C8.71 8 4.42 8 0 8 C0 5.36 0 2.72 0 0 Z " fill="#3A547A" transform="translate(252,160)" />
<path d="M0 0 C0.99 0.66 1.98 1.32 3 2 C3.66 1.34 4.32 0.68 5 0 C6.46484375 1.26953125 7.9296875 2.5390625 9.39453125 3.80859375 C13.26130407 6.67809669 17.61555908 6.1144085 22.1875 6.0625 C23.31188477 6.05573242 23.31188477 6.05573242 24.45898438 6.04882812 C26.30602383 6.03706354 28.15302213 6.01912865 30 6 C30.495 9.96 30.495 9.96 31 14 C27.81267746 14.08797281 24.62567212 14.14071341 21.4375 14.1875 C20.09461914 14.22520508 20.09461914 14.22520508 18.72460938 14.26367188 C9.97331071 14.35983999 4.36043459 12.05755675 -2 6 C-2.33 5.01 -2.66 4.02 -3 3 C-2.01 2.67 -1.02 2.34 0 2 C0 1.34 0 0.68 0 0 Z " fill="#21406D" transform="translate(209,209)" />
<path d="M0 0 C3.8049446 1.77984517 5.6745875 3.4481047 7.30859375 7.2421875 C5.65859375 8.8921875 4.00859375 10.5421875 2.30859375 12.2421875 C-0.18502196 11.03837302 -2.37283708 9.78790028 -4.69140625 8.2421875 C-7.98799914 7.96115076 -7.98799914 7.96115076 -11.62890625 8.0546875 C-13.46775391 8.06435547 -13.46775391 8.06435547 -15.34375 8.07421875 C-18.00208981 8.20760103 -20.17185999 8.45285596 -22.69140625 9.2421875 C-23.5546647 6.82506384 -23.80467165 5.59228056 -23.00390625 3.1171875 C-18.53596273 -3.26558895 -6.67845025 -1.88043447 0 0 Z " fill="#2C4872" transform="translate(188.69140625,163.7578125)" />
<path d="M0 0 C6.6 0 13.2 0 20 0 C20 13.2 20 26.4 20 40 C22.97 40 25.94 40 29 40 C29 43.3 29 46.6 29 50 C25.7 50 22.4 50 19 50 C19 47.03 19 44.06 19 41 C-2.78 41 -24.56 41 -47 41 C-47 40.67 -47 40.34 -47 40 C-31.49 40 -15.98 40 0 40 C0 35.71 0 31.42 0 27 C0.33 27 0.66 27 1 27 C1 31.29 1 35.58 1 40 C6.94 40 12.88 40 19 40 C19 27.13 19 14.26 19 1 C12.73 1 6.46 1 0 1 C0 0.67 0 0.34 0 0 Z " fill="#AAAAA4" transform="translate(223,81)" />
<path d="M0 0 C2.85746217 1.26998319 4.48137263 2.2838003 6.3125 4.8125 C7 7 7 7 7 13 C-0.26 13 -7.52 13 -15 13 C-13.86166008 5.03162055 -13.86166008 5.03162055 -9 1 C-5.93570224 -0.53214888 -3.3834358 -0.22938548 0 0 Z " fill="#F6FAFA" transform="translate(227,185)" />
<path d="M0 0 C18.81 0 37.62 0 57 0 C57 6.27 57 12.54 57 19 C63.27 19 69.54 19 76 19 C76 31.54 76 44.08 76 57 C75.67 57 75.34 57 75 57 C74.505 39.675 74.505 39.675 74 22 C68.39 21.67 62.78 21.34 57 21 C55 17 55 17 55 1 C37.18 1 19.36 1 1 1 C1 4.63 1 8.26 1 12 C12.88 12.33 24.76 12.66 37 13 C37 13.33 37 13.66 37 14 C24.79 14 12.58 14 0 14 C0 9.38 0 4.76 0 0 Z " fill="#253F64" transform="translate(166,63)" />
<path d="M0 0 C1.32 0 2.64 0 4 0 C5.81640625 2.23046875 5.81640625 2.23046875 7.5625 5.1875 C8.14128906 6.15042969 8.72007812 7.11335937 9.31640625 8.10546875 C10.14978516 9.53826172 10.14978516 9.53826172 11 11 C11.99 12.65 12.98 14.3 14 16 C14 10.72 14 5.44 14 0 C14.99 0 15.98 0 17 0 C17 7.26 17 14.52 17 22 C12.23046092 20.80761523 12.23046092 20.80761523 10 18 C7.83921336 14.07273085 5.95343908 10.03710744 4 6 C3.67 11.28 3.34 16.56 3 22 C2.01 22 1.02 22 0 22 C0 14.74 0 7.48 0 0 Z " fill="#242424" transform="translate(148,240)" />
<path d="M0 0 C5.10618352 1.27654588 6.20021883 3.81424896 8.75 8.0625 C9.16121094 8.72572266 9.57242187 9.38894531 9.99609375 10.07226562 C11.00824336 11.70818186 12.00557507 13.35324932 13 15 C13.33 10.05 13.66 5.1 14 0 C14.99 0 15.98 0 17 0 C17 7.26 17 14.52 17 22 C15.68 22 14.36 22 13 22 C11.71972656 20.62304688 11.71972656 20.62304688 10.640625 18.71875 C10.24746094 18.04199219 9.85429687 17.36523438 9.44921875 16.66796875 C8.85560547 15.59482422 8.85560547 15.59482422 8.25 14.5 C7.83878906 13.78457031 7.42757813 13.06914062 7.00390625 12.33203125 C5.98924794 10.56227839 4.99286723 8.78206939 4 7 C3.67 11.95 3.34 16.9 3 22 C2.01 22 1.02 22 0 22 C0 14.74 0 7.48 0 0 Z " fill="#2E2E2E" transform="translate(263,240)" />
<path d="M0 0 C5.94 0 11.88 0 18 0 C18 21.45 18 42.9 18 65 C12.06 65 6.12 65 0 65 C0 43.55 0 22.1 0 0 Z M2 1 C1.14546567 4.69576905 0.87821797 8.1020461 0.88647461 11.8918457 C0.88655014 13.05267166 0.88662567 14.21349762 0.88670349 15.40950012 C0.89186478 16.65237289 0.89702606 17.89524567 0.90234375 19.17578125 C0.9037587 20.45607712 0.90517365 21.73637299 0.90663147 23.0554657 C0.91043603 26.4469704 0.92024857 29.83843177 0.93133545 33.22991943 C0.94159403 36.69559137 0.94613859 40.16127036 0.95117188 43.62695312 C0.96219245 50.41798748 0.9789243 57.20898981 1 64 C3.12438339 64.08078641 5.2496323 64.13909141 7.375 64.1875 C8.55835938 64.22230469 9.74171875 64.25710937 10.9609375 64.29296875 C11.96382812 64.19628906 12.96671875 64.09960938 14 64 C18.13263271 57.80105093 17.13122393 50.23525292 17.09765625 43.0390625 C17.0962413 41.89335785 17.09482635 40.7476532 17.09336853 39.56723022 C17.0877858 35.91979322 17.07523641 32.27241835 17.0625 28.625 C17.05748277 26.14713631 17.05292025 23.66927165 17.04882812 21.19140625 C17.03782201 15.12758309 17.02110103 9.06379598 17 3 C13.53324426 1.12379699 11.21496827 0.78059599 7.25 0.875 C6.26515625 0.89304688 5.2803125 0.91109375 4.265625 0.9296875 C3.51796875 0.95289063 2.7703125 0.97609375 2 1 Z " fill="#B18D4F" transform="translate(133,56)" />
<path d="M0 0 C1.66666667 0 3.33333333 0 5 0 C5.33 0.66 5.66 1.32 6 2 C18.87 2.495 18.87 2.495 32 3 C32.495 5.475 32.495 5.475 33 8 C22.11 8 11.22 8 0 8 C-1 3 -1 3 0 0 Z " fill="#1A3D6F" transform="translate(59,213)" />
<path d="M0 0 C0 0.99 0 1.98 0 3 C-14.19 3.33 -28.38 3.66 -43 4 C-42.67 7.63 -42.34 11.26 -42 15 C-23.52 15 -5.04 15 14 15 C14 15.33 14 15.66 14 16 C-5.14 16 -24.28 16 -44 16 C-44 11.05 -44 6.1 -44 1 C-29.48 0.67 -14.96 0.34 0 0 Z " fill="#1D365F" transform="translate(210,91)" />
<path d="M0 0 C14.52 0 29.04 0 44 0 C44 4.62 44 9.24 44 14 C29.15 14 14.3 14 -1 14 C-1 13.34 -1 12.68 -1 12 C13.19 11.67 27.38 11.34 42 11 C42 8.03 42 5.06 42 2 C28.14 1.67 14.28 1.34 0 1 C0 0.67 0 0.34 0 0 Z " fill="#CDDAE8" transform="translate(166,78)" />
<path d="M0 0 C13.86 0 27.72 0 42 0 C42 2.64 42 5.28 42 8 C28.14 8 14.28 8 0 8 C0 5.36 0 2.72 0 0 Z M2 2 C2 3.32 2 4.64 2 6 C14.54 6 27.08 6 40 6 C40 4.35 40 2.7 40 1 C34.90967159 0.97531916 29.81937785 0.95714918 24.72900391 0.94506836 C22.99657586 0.94003318 21.26415208 0.93320468 19.53173828 0.92456055 C17.04458567 0.91245935 14.55748913 0.90676362 12.0703125 0.90234375 C10.90461227 0.89460182 10.90461227 0.89460182 9.71536255 0.88670349 C5.72829094 0.79671948 5.72829094 0.79671948 2 2 Z " fill="#425570" transform="translate(103,189)" />
<path d="M0 0 C3.0625 1.75 3.0625 1.75 5 5 C5.62424918 9.08548794 5.81017334 12.93795851 5 17 C1.9015891 20.7447052 0.05010572 21.89671091 -4.8125 22.375 C-8.11983012 22.30270863 -9.04807509 21.96995307 -12 20.125 C-14.82065259 15.71773033 -14.63689329 12.0951463 -14 7 C-12.0037288 -0.37084753 -6.8371363 -1.08963118 0 0 Z M-10.4375 4.0625 C-12.38701789 7.72759364 -12.51301543 9.89587659 -12 14 C-10.84360194 16.31279611 -9.82590172 18.17409828 -8 20 C-5.12635209 20.41746608 -5.12635209 20.41746608 -2 20 C1.2401623 17.37284138 2.83840517 15.42203453 3.3125 11.25 C2.90887789 7.05233002 1.8658695 5.086321 -1 2 C-5.28219344 1.15885486 -7.07560526 1.21781983 -10.4375 4.0625 Z " fill="#171717" transform="translate(244,240)" />
<path d="M0 0 C0.99 0 1.98 0 3 0 C3.04898438 1.20398438 3.09796875 2.40796875 3.1484375 3.6484375 C3.22346343 5.22398198 3.29901133 6.79950166 3.375 8.375 C3.4059375 9.1690625 3.436875 9.963125 3.46875 10.78125 C3.51816421 15.36667375 3.51816421 15.36667375 6 19 C8.58354218 19.16687448 8.58354218 19.16687448 11 19 C13.35108558 15.29178372 13.43155058 11.51394762 13.625 7.25 C13.68300781 6.20392578 13.68300781 6.20392578 13.7421875 5.13671875 C13.83598624 3.42489182 13.91906174 1.71248318 14 0 C14.99 0 15.98 0 17 0 C17.13548815 2.73083902 17.23429855 5.45491807 17.3125 8.1875 C17.35439453 8.95642578 17.39628906 9.72535156 17.43945312 10.51757812 C17.53151058 14.80745575 17.39002962 16.48725698 14.703125 20.01953125 C11.19320658 22.59110443 9.2629755 22.62006916 5 22 C1.8149643 20.23984869 1.16703028 19.50109084 0 16 C-0.07051114 13.26134713 -0.09357765 10.54972412 -0.0625 7.8125 C-0.05798828 7.06291016 -0.05347656 6.31332031 -0.04882812 5.54101562 C-0.03706354 3.69397617 -0.01912865 1.84697787 0 0 Z " fill="#292929" transform="translate(117,240)" />
<path d="M0 0 C0 2.64 0 5.28 0 8 C-3.71745307 9.23915102 -7.19123381 9.18407713 -11.0625 9.1875 C-11.79533203 9.19974609 -12.52816406 9.21199219 -13.28320312 9.22460938 C-15.19026507 9.22986299 -17.09684886 9.12218272 -19 9 C-19.66 8.34 -20.32 7.68 -21 7 C-21 6.34 -21 5.68 -21 5 C-20.01 5 -19.02 5 -18 5 C-18 4.34 -18 3.68 -18 3 C-16.35 3 -14.7 3 -13 3 C-13 2.34 -13 1.68 -13 1 C-11.39602723 0.83147753 -9.7918131 0.66525114 -8.1875 0.5 C-7.29417969 0.4071875 -6.40085937 0.314375 -5.48046875 0.21875 C-3 0 -3 0 0 0 Z " fill="#1F4171" transform="translate(342,214)" />
<path d="M0 0 C0.33 0 0.66 0 1 0 C1.33 20.79 1.66 41.58 2 63 C24.77 63.33 47.54 63.66 71 64 C71 64.33 71 64.66 71 65 C47.57 65 24.14 65 0 65 C0 43.55 0 22.1 0 0 Z " fill="#FEF6E3" transform="translate(152,56)" />
<path d="M0 0 C0.33 0 0.66 0 1 0 C1.03738281 0.97582031 1.07476562 1.95164063 1.11328125 2.95703125 C1.17902344 4.22933594 1.24476563 5.50164062 1.3125 6.8125 C1.37050781 8.07707031 1.42851562 9.34164062 1.48828125 10.64453125 C1.7113494 13.96603693 1.7113494 13.96603693 3.54296875 15.94921875 C4.02378906 16.29597656 4.50460938 16.64273438 5 17 C4.9278125 16.38511719 4.855625 15.77023438 4.78125 15.13671875 C4.6884375 14.32847656 4.595625 13.52023438 4.5 12.6875 C4.4071875 11.88699219 4.314375 11.08648437 4.21875 10.26171875 C4 8 4 8 4 5 C4.66 4.34 5.32 3.68 6 3 C6 4.32 6 5.64 6 7 C13.59 7 21.18 7 29 7 C29 7.33 29 7.66 29 8 C18.605 8.495 18.605 8.495 8 9 C7.67 9.66 7.34 10.32 7 11 C11.95 11.33 16.9 11.66 22 12 C22 12.33 22 12.66 22 13 C17.05 13 12.1 13 7 13 C7.33 13.66 7.66 14.32 8 15 C8.039992 16.99960012 8.04346799 19.00047242 8 21 C7.01 20.67 6.02 20.34 5 20 C4.34 20.66 3.68 21.32 3 22 C0.7522025 19.94766315 -0.0022242 18.99332739 -1 16 C-1.09485782 13.8350098 -1.12988077 11.66706177 -1.125 9.5 C-1.12757813 8.3553125 -1.13015625 7.210625 -1.1328125 6.03125 C-1 3 -1 3 0 0 Z " fill="#18335C" transform="translate(205,191)" />
<path d="M0 0 C1.9375 0.5625 1.9375 0.5625 4 2 C5.05165303 6.28750852 5.16078534 9.74378709 4 14 C3.34 13.34 2.68 12.68 2 12 C2 12.66 2 13.32 2 14 C2 17.33333333 2 20.66666667 2 24 C1.01 23.67 0.02 23.34 -1 23 C-2.54861369 19.90277261 -2.50142918 16.59170773 -2.75 13.1875 C-2.81832031 12.47529297 -2.88664063 11.76308594 -2.95703125 11.02929688 C-3.29156208 6.39304274 -2.83003965 3.71260356 0 0 Z " fill="#1B3E74" transform="translate(208,184)" />
<path d="M0 0 C1.1446875 -0.01675781 2.289375 -0.03351563 3.46875 -0.05078125 C6.5 0.3125 6.5 0.3125 8.34375 1.64453125 C9.5 3.3125 9.5 3.3125 10.5 6.3125 C3.57 6.3125 -3.36 6.3125 -10.5 6.3125 C-8.90738529 -0.05795885 -5.96435322 0.02014984 0 0 Z " fill="#1A3465" transform="translate(76.5,190.6875)" />
<path d="M0 0 C4 3 4 3 4.36230469 4.99853516 C4.29946289 5.75440918 4.23662109 6.5102832 4.171875 7.2890625 C4.11378662 8.14089111 4.05569824 8.99271973 3.99584961 9.87036133 C3.91471924 10.77939209 3.83358887 11.68842285 3.75 12.625 C3.61760983 14.51668648 3.48875761 16.40862359 3.36328125 18.30078125 C3.29705566 19.25162598 3.23083008 20.2024707 3.16259766 21.18212891 C2.91955367 25.39416152 2.90654753 29.59477028 2.9375 33.8125 C2.94168945 34.54098145 2.94587891 35.26946289 2.95019531 36.02001953 C2.96235672 37.68005149 2.98041986 39.34003897 3 41 C2.34 41 1.68 41 1 41 C0.67 41.66 0.34 42.32 0 43 C0 28.81 0 14.62 0 0 Z " fill="#163862" transform="translate(266,168)" />
<path d="M0 0 C0 0.66 0 1.32 0 2 C-2.31 2.33 -4.62 2.66 -7 3 C-6.96219702 5.37233611 -6.96219702 5.37233611 -6 8 C-3.11211359 10.23084477 -3.11211359 10.23084477 0 12 C0.66 12.66 1.32 13.32 2 14 C1.8125 17 1.8125 17 1 20 C-2.20380017 22.13586678 -3.01939967 22.23132175 -6.6875 22.125 C-7.89986328 22.09792969 -7.89986328 22.09792969 -9.13671875 22.0703125 C-9.75160156 22.04710937 -10.36648437 22.02390625 -11 22 C-11 21.01 -11 20.02 -11 19 C-8.36 19 -5.72 19 -3 19 C-2.67 17.35 -2.34 15.7 -2 14 C-2.56589844 13.65066406 -3.13179688 13.30132812 -3.71484375 12.94140625 C-4.44832031 12.48636719 -5.18179688 12.03132812 -5.9375 11.5625 C-6.66839844 11.11003906 -7.39929688 10.65757812 -8.15234375 10.19140625 C-10 9 -10 9 -11 8 C-11.28417861 5.30030316 -11.32477191 3.58864909 -10 1.1875 C-6.76011038 -0.73618446 -3.7174181 -0.18282384 0 0 Z " fill="#141414" transform="translate(102,240)" />
<path d="M0 0 C3.63 0 7.26 0 11 0 C11 0.66 11 1.32 11 2 C8.03 2 5.06 2 2 2 C2 4.64 2 7.28 2 10 C4.97 10 7.94 10 11 10 C11 10.66 11 11.32 11 12 C8.03 12 5.06 12 2 12 C2 14.64 2 17.28 2 20 C5.3 20 8.6 20 12 20 C12 20.66 12 21.32 12 22 C8.04 22 4.08 22 0 22 C0 14.74 0 7.48 0 0 Z " fill="#1B1B1B" transform="translate(295,240)" />
<path d="M0 0 C0 0.66 0 1.32 0 2 C-2.31 2.33 -4.62 2.66 -7 3 C-7.04510361 5.37897003 -7.04510361 5.37897003 -6 8 C-3.7691525 9.67849824 -1.52594094 10.75999263 1 12 C1.29296875 18.0546875 1.29296875 18.0546875 1 20 C-2.08888522 22.05925681 -2.70935927 22.2390374 -6.1875 22.125 C-7.445625 22.08375 -8.70375 22.0425 -10 22 C-10.33 21.01 -10.66 20.02 -11 19 C-7.7 19 -4.4 19 -1 19 C-0.87786106 16.65851769 -0.87786106 16.65851769 -2 14 C-4.51205816 12.04557544 -7.22881195 10.55282089 -10 9 C-11 8 -11 8 -11.25 5.625 C-11 3 -11 3 -10 1.1875 C-6.76011038 -0.73618446 -3.7174181 -0.18282384 0 0 Z " fill="#1C1C1C" transform="translate(190,240)" />
<path d="M0 0 C1.32 0 2.64 0 4 0 C4.33 2.31 4.66 4.62 5 7 C-0.2468021 8.73288877 -4.80299234 9.31127349 -10.3125 9.25 C-11.02728516 9.25773438 -11.74207031 9.26546875 -12.47851562 9.2734375 C-17.74642266 9.25357734 -17.74642266 9.25357734 -20 7 C-15.38 6.67 -10.76 6.34 -6 6 C-6 5.67 -6 5.34 -6 5 C-8.97 4.505 -8.97 4.505 -12 4 C-12 3.67 -12 3.34 -12 3 C-6.06 2.505 -6.06 2.505 0 2 C0 1.34 0 0.68 0 0 Z " fill="#27416E" transform="translate(190,214)" />
<path d="M0 0 C0.33 0 0.66 0 1 0 C1 5.94 1 11.88 1 18 C7.27 18 13.54 18 20 18 C20 30.54 20 43.08 20 56 C19.67 56 19.34 56 19 56 C18.67 44.45 18.34 32.9 18 21 C12.39 20.67 6.78 20.34 1 20 C-1.24519581 15.50960837 -1.04965789 12.55712737 -0.625 7.75 C-0.56828125 7.00492187 -0.5115625 6.25984375 -0.453125 5.4921875 C-0.31223742 3.66064892 -0.15748116 1.83018648 0 0 Z " fill="#1A365D" transform="translate(222,64)" />
<path d="M0 0 C0.66 0.33 1.32 0.66 2 1 C1.67 2.65 1.34 4.3 1 6 C2.98 5.67 4.96 5.34 7 5 C6.2575 5.680625 5.515 6.36125 4.75 7.0625 C-2.1921556 14.18165107 -2.98205402 21.34290722 -4 31 C-4.33 31 -4.66 31 -5 31 C-5.2611994 23.3671732 -5.50255082 15.00510164 -2 8 C-3.98 8.33 -5.96 8.66 -8 9 C-5.89851796 5.01824456 -3.63094642 2.64960955 0 0 Z " fill="#203962" transform="translate(165,166)" />
<path d="M0 0 C5.28 0 10.56 0 16 0 C16 0.66 16 1.32 16 2 C14.02 2 12.04 2 10 2 C10 8.6 10 15.2 10 22 C9.01 22 8.02 22 7 22 C7 15.4 7 8.8 7 2 C4.69 2 2.38 2 0 2 C0 1.34 0 0.68 0 0 Z " fill="#232323" transform="translate(203,240)" />
<path d="M0 0 C7.26 0 14.52 0 22 0 C22.33 1.32 22.66 2.64 23 4 C15.41 4 7.82 4 0 4 C0 2.68 0 1.36 0 0 Z " fill="#193E73" transform="translate(69,166)" />
<path d="M0 0 C5.28 0.33 10.56 0.66 16 1 C16.33 2.65 16.66 4.3 17 6 C14.93816367 6.08150744 12.87538651 6.1394194 10.8125 6.1875 C9.08966797 6.23970703 9.08966797 6.23970703 7.33203125 6.29296875 C3.72960801 5.97622579 1.90633161 5.08533398 -1 3 C-0.67 2.01 -0.34 1.02 0 0 Z " fill="#18386A" transform="translate(219,215)" />
<path d="M0 0 C2.97 0 5.94 0 9 0 C9 2.97 9 5.94 9 9 C6.03 9 3.06 9 0 9 C0 6.03 0 3.06 0 0 Z " fill="#273A5F" transform="translate(133,131)" />
<path d="M0 0 C2.97 0 5.94 0 9 0 C9 2.97 9 5.94 9 9 C6.03 9 3.06 9 0 9 C0 6.03 0 3.06 0 0 Z " fill="#B38E4F" transform="translate(243,122)" />
<path d="M0 0 C2.97 0 5.94 0 9 0 C9 2.97 9 5.94 9 9 C6.03 9 3.06 9 0 9 C0 6.03 0 3.06 0 0 Z " fill="#AD8D4C" transform="translate(243,63)" />
<path d="M0 0 C9.9 0 19.8 0 30 0 C27.36008732 2.63991268 26.02053704 2.30240797 22.3359375 2.4140625 C21.21445313 2.45273438 20.09296875 2.49140625 18.9375 2.53125 C17.761875 2.5621875 16.58625 2.593125 15.375 2.625 C14.19164062 2.66367188 13.00828125 2.70234375 11.7890625 2.7421875 C8.85953309 2.83668845 5.93001403 2.92224558 3 3 C4.65 4.65 6.3 6.3 8 8 C7.67 8.66 7.34 9.32 7 10 C1.125 5.625 1.125 5.625 0 0 Z " fill="#C5D5E1" transform="translate(212,204)" />
<path d="M0 0 C1.32 0 2.64 0 4 0 C4 0.99 4 1.98 4 3 C3.34 3 2.68 3 2 3 C2.33 3.66 2.66 4.32 3 5 C3.07194869 7.88370333 3.09291708 10.74239664 3.0625 13.625 C3.05798828 14.42679688 3.05347656 15.22859375 3.04882812 16.0546875 C3.03703168 18.03649006 3.01909605 20.01825433 3 22 C2.01 22 1.02 22 0 22 C0 14.74 0 7.48 0 0 Z " fill="#202020" transform="translate(148,240)" />
<path d="M0 0 C7.59 0 15.18 0 23 0 C23 2.64 23 5.28 23 8 C21.5 6.625 21.5 6.625 20 5 C20 4.34 20 3.68 20 3 C15.05 3 10.1 3 5 3 C4.67 3.66 4.34 4.32 4 5 C3.01 4.67 2.02 4.34 1 4 C1.33 3.01 1.66 2.02 2 1 C1.34 0.67 0.68 0.34 0 0 Z " fill="#2F3E61" transform="translate(65,189)" />
<path d="M0 0 C1.32 0 2.64 0 4 0 C4.33 2.64 4.66 5.28 5 8 C1.70840684 8.05790353 -1.58305603 8.09356261 -4.875 8.125 C-6.28072266 8.15013672 -6.28072266 8.15013672 -7.71484375 8.17578125 C-9.05869141 8.18544922 -9.05869141 8.18544922 -10.4296875 8.1953125 C-11.25710449 8.20578613 -12.08452148 8.21625977 -12.93701172 8.22705078 C-15 8 -15 8 -17 6 C-11.06 6 -5.12 6 1 6 C0.67 4.02 0.34 2.04 0 0 Z " fill="#2F4469" transform="translate(235,215)" />
<path d="M0 0 C2.475 0.99 2.475 0.99 5 2 C5 6 5 6 3 8.25 C2.34 8.8275 1.68 9.405 1 10 C-1.62187494 8.95125002 -2.79371361 8.35068687 -4.25 5.875 C-4.4975 5.25625 -4.745 4.6375 -5 4 C-4.360625 3.71125 -3.72125 3.4225 -3.0625 3.125 C-0.84793921 2.17176549 -0.84793921 2.17176549 0 0 Z " fill="#324566" transform="translate(190,166)" />
<path d="M0 0 C-2.58485876 2.27467571 -4.11927587 3.02511071 -7.5625 3.75 C-8.696875 4.1625 -9.83125 4.575 -11 5 C-11.99 7.31 -12.98 9.62 -14 12 C-7.07 12 -0.14 12 7 12 C7 12.33 7 12.66 7 13 C-0.26 13 -7.52 13 -15 13 C-13.86166008 5.03162055 -13.86166008 5.03162055 -9 1 C-6.04335481 -0.4783226 -3.25770263 -0.06032783 0 0 Z " fill="#BFCDE0" transform="translate(227,185)" />
<path d="M0 0 C-0.928125 0.721875 -1.85625 1.44375 -2.8125 2.1875 C-10.24770966 8.48555995 -10.76755768 16.88367719 -11.625 26.125 C-11.75550539 27.74956712 -11.88256381 29.37443587 -12 31 C-12.33 31 -12.66 31 -13 31 C-13.34622583 8.26450405 -13.34622583 8.26450405 -6 0 C-3.50907189 -1.24546405 -2.58919267 -0.7767578 0 0 Z " fill="#BCCAD8" transform="translate(165,167)" />
<path d="M0 0 C5.61 0 11.22 0 17 0 C15.35 1.65 13.7 3.3 12 5 C12 5.33 12 5.66 12 6 C8.7 6 5.4 6 2 6 C2 5.01 2 4.02 2 3 C1.34 2.67 0.68 2.34 0 2 C0 1.34 0 0.68 0 0 Z " fill="#163466" transform="translate(173,215)" />
<path d="M0 0 C0.99 0 1.98 0 3 0 C3 5.61 3 11.22 3 17 C2.01 17 1.02 17 0 17 C0 11.39 0 5.78 0 0 Z " fill="#353535" transform="translate(131,240)" />
<path d="M0 0 C3.125 2.25 3.125 2.25 5 5 C4.8125 7.3125 4.8125 7.3125 4 9 C1.9754262 7.06745228 0.57894208 5.36841312 -1 3 C-5.54899046 2.57084996 -8.89210262 3.00829218 -13 5 C-10.3308279 -0.91030964 -6.07494243 -0.941041 0 0 Z " fill="#272727" transform="translate(244,240)" />
<path d="M0 0 C1.9375 0.5625 1.9375 0.5625 4 2 C5.05165303 6.28750852 5.16078534 9.74378709 4 14 C3.67 14 3.34 14 3 14 C3 11.36 3 8.72 3 6 C2.34 6 1.68 6 1 6 C0.34 7.65 -0.32 9.3 -1 11 C-2.125 9.375 -2.125 9.375 -3 7 C-1.63157895 1.63157895 -1.63157895 1.63157895 0 0 Z " fill="#27436F" transform="translate(208,184)" />
<path d="M0 0 C-0.33 1.32 -0.66 2.64 -1 4 C-2.65 4 -4.3 4 -6 4 C-6 4.66 -6 5.32 -6 6 C-7.98 6.99 -7.98 6.99 -10 8 C-10 7.34 -10 6.68 -10 6 C-10.99 5.67 -11.98 5.34 -13 5 C-8.7797731 -0.27528362 -6.38501231 -0.54110274 0 0 Z " fill="#1F3E71" transform="translate(226,180)" />
<path d="M0 0 C9.24 0 18.48 0 28 0 C24.09182496 1.95408752 23.10340805 2.22581756 19.015625 1.9765625 C18.08105469 1.925 17.14648438 1.8734375 16.18359375 1.8203125 C15.21550781 1.75585938 14.24742188 1.69140625 13.25 1.625 C12.26644531 1.56828125 11.28289062 1.5115625 10.26953125 1.453125 C7.845589 1.31192448 5.42272541 1.16054205 3 1 C3 1.66 3 2.32 3 3 C2.34 3 1.68 3 1 3 C1 7.62 1 12.24 1 17 C0.67 17 0.34 17 0 17 C0 11.39 0 5.78 0 0 Z " fill="#E6F5FD" transform="translate(65,172)" />
<path d="M0 0 C1.32 0.33 2.64 0.66 4 1 C4 1.66 4 2.32 4 3 C3.34 3 2.68 3 2 3 C2 5.97 2 8.94 2 12 C-1.96 12 -5.92 12 -10 12 C-10 11.34 -10 10.68 -10 10 C-6.7 10 -3.4 10 0 10 C0 6.7 0 3.4 0 0 Z " fill="#FEF8DD" transform="translate(252,121)" />
<path d="M0 0 C2.40124805 2.2710599 4.349478 4.67183035 6.25 7.375 C7.06210938 8.50035156 7.06210938 8.50035156 7.890625 9.6484375 C9.25813343 12.54717015 8.91525368 13.98817683 8 17 C4.27784872 15.13892436 3.15507903 10.32876755 1.4375 6.6875 C0.27856424 3.89854759 0.27856424 3.89854759 -2 3 C-2 2.34 -2 1.68 -2 1 C-1.34 0.67 -0.68 0.34 0 0 Z " fill="#232323" transform="translate(152,242)" />
<path d="M0 0 C0.99 0.66 1.98 1.32 3 2 C2.01 5.63 1.02 9.26 0 13 C-0.66 13 -1.32 13 -2 13 C-2 15.64 -2 18.28 -2 21 C-2.33 21 -2.66 21 -3 21 C-3.2635606 14.11813996 -2.84472171 7.66523539 -1 1 C-0.67 0.67 -0.34 0.34 0 0 Z " fill="#1A375F" transform="translate(156,176)" />
<path d="M0 0 C0 0.99 0 1.98 0 3 C-1.98 3.33 -3.96 3.66 -6 4 C-6.33 5.32 -6.66 6.64 -7 8 C-0.73 8 5.54 8 12 8 C12 8.33 12 8.66 12 9 C5.4 9 -1.2 9 -8 9 C-8 6.36 -8 3.72 -8 1 C-5.36 0.67 -2.72 0.34 0 0 Z " fill="#203B66" transform="translate(142,39)" />
<path d="M0 0 C0 2.64 0 5.28 0 8 C-3.63 8 -7.26 8 -11 8 C-11 7.67 -11 7.34 -11 7 C-8.69 7 -6.38 7 -4 7 C-4 5.68 -4 4.36 -4 3 C-4.66 3 -5.32 3 -6 3 C-6 2.34 -6 1.68 -6 1 C-3 0 -3 0 0 0 Z " fill="#21385F" transform="translate(292,214)" />
<path d="M0 0 C2 2 2 2 4 5 C4.556875 4.484375 5.11375 3.96875 5.6875 3.4375 C8 2 8 2 10.75 2.3125 C11.4925 2.539375 12.235 2.76625 13 3 C13 3.66 13 4.32 13 5 C11.35 5 9.7 5 8 5 C8 6.32 8 7.64 8 9 C4.93795671 8.66896829 3.39949096 8.39949096 1.1875 6.1875 C0 4 0 4 0 0 Z " fill="#1B375E" transform="translate(316,212)" />
<path d="M0 0 C0 0.66 0 1.32 0 2 C-2.31 2.33 -4.62 2.66 -7 3 C-6.67 4.98 -6.34 6.96 -6 9 C-7.65 8.67 -9.3 8.34 -11 8 C-11.21620175 5.3335118 -11.30894168 3.55995679 -10 1.1875 C-6.76011038 -0.73618446 -3.7174181 -0.18282384 0 0 Z " fill="#272727" transform="translate(190,240)" />
<path d="M0 0 C1.98 0 3.96 0 6 0 C6.33 1.98 6.66 3.96 7 6 C4.69 6 2.38 6 0 6 C0 4.02 0 2.04 0 0 Z " fill="#C38B3B" transform="translate(244,65)" />
<path d="M0 0 C0.33 0 0.66 0 1 0 C1 2.64 1 5.28 1 8 C-2.76300374 9.25433458 -6.27210909 9.10695422 -10.1875 9.0625 C-10.93708984 9.05798828 -11.68667969 9.05347656 -12.45898438 9.04882812 C-14.30602383 9.03706354 -16.15302213 9.01912865 -18 9 C-14.55824478 6.85300031 -12.2279708 6.90143205 -8.25 7.375 C-7.26515625 7.48585937 -6.2803125 7.59671875 -5.265625 7.7109375 C-4.14414062 7.85402344 -4.14414062 7.85402344 -3 8 C-2.690625 7.05125 -2.38125 6.1025 -2.0625 5.125 C-1 2 -1 2 0 0 Z " fill="#3E4F6C" transform="translate(341,214)" />
<path d="M0 0 C1.98 0 3.96 0 6 0 C6 1.98 6 3.96 6 6 C4.02 6 2.04 6 0 6 C0 4.02 0 2.04 0 0 Z " fill="#1C3C74" transform="translate(134,132)" />
<path d="M0 0 C0.66 0.66 1.32 1.32 2 2 C0.14375 1.938125 0.14375 1.938125 -1.75 1.875 C-5.10238309 1.86319583 -7.06597591 2.32341481 -10 4 C-12.33333333 4 -14.66666667 4 -17 4 C-12.40605089 -1.25022755 -6.48526389 -0.82382968 0 0 Z " fill="#DCE8F3" transform="translate(184,171)" />
<path d="M0 0 C0.66 0.33 1.32 0.66 2 1 C2.49230769 8.38461538 2.49230769 8.38461538 0 11.5 C-0.66 11.995 -1.32 12.49 -2 13 C-2.99 12.34 -3.98 11.68 -5 11 C-4.54625 10.67 -4.0925 10.34 -3.625 10 C-1.15680026 6.9622157 -0.81156856 3.80812939 0 0 Z " fill="#1D1D1D" transform="translate(247,248)" />
<path d="M0 0 C0 0.66 0 1.32 0 2 C-2.31 2.33 -4.62 2.66 -7 3 C-7.103125 3.639375 -7.20625 4.27875 -7.3125 4.9375 C-7.539375 5.618125 -7.76625 6.29875 -8 7 C-8.99 7.33 -9.98 7.66 -11 8 C-11.21620175 5.3335118 -11.30894168 3.55995679 -10 1.1875 C-6.76011038 -0.73618446 -3.7174181 -0.18282384 0 0 Z " fill="#2F2F2F" transform="translate(102,240)" />
<path d="M0 0 C0.66 0 1.32 0 2 0 C2.66 0.99 3.32 1.98 4 3 C4.66 3 5.32 3 6 3 C6 3.66 6 4.32 6 5 C5.360625 5.12375 4.72125 5.2475 4.0625 5.375 C3.0415625 5.684375 3.0415625 5.684375 2 6 C1.67 6.66 1.34 7.32 1 8 C0.01 7.67 -0.98 7.34 -2 7 C-1.125 2.25 -1.125 2.25 0 0 Z M3 1 C5 2 5 2 5 2 Z " fill="#1C4071" transform="translate(167,165)" />
<path d="M0 0 C0.66 0.33 1.32 0.66 2 1 C2 5.29 2 9.58 2 14 C0.35 14 -1.3 14 -3 14 C-2.01 13.67 -1.02 13.34 0 13 C-0.2784375 11.453125 -0.2784375 11.453125 -0.5625 9.875 C-0.97307082 6.23851558 -0.778309 3.54562991 0 0 Z " fill="#314464" transform="translate(240,190)" />
<path d="M0 0 C0.66 1.32 1.32 2.64 2 4 C0.29171079 6.10633718 -0.52148416 6.93801608 -3.26171875 7.29296875 C-4.06222656 7.25816406 -4.86273438 7.22335937 -5.6875 7.1875 C-6.49574219 7.16042969 -7.30398437 7.13335937 -8.13671875 7.10546875 C-8.75160156 7.07066406 -9.36648437 7.03585937 -10 7 C-10 6.01 -10 5.02 -10 4 C-7.36 4 -4.72 4 -2 4 C-1.34 2.68 -0.68 1.36 0 0 Z " fill="#2A2A2A" transform="translate(101,255)" />
<path d="M0 0 C0.33 0 0.66 0 1 0 C1.13277344 0.89203125 1.26554688 1.7840625 1.40234375 2.703125 C1.57894531 3.87359375 1.75554687 5.0440625 1.9375 6.25 C2.11152344 7.41015625 2.28554687 8.5703125 2.46484375 9.765625 C2.8727736 12.23106961 3.33901303 14.59424562 4 17 C3.34 17 2.68 17 2 17 C2 16.34 2 15.68 2 15 C1.34 15 0.68 15 0 15 C-1.0024305 9.65370398 -0.84888195 5.37625234 0 0 Z " fill="#D6E4EF" transform="translate(203,197)" />
<path d="M0 0 C0.66 0.33 1.32 0.66 2 1 C2 1.66 2 2.32 2 3 C2.99 2.67 3.98 2.34 5 2 C5.99 2.33 6.98 2.66 8 3 C8 4.65 8 6.3 8 8 C4.7 6.35 1.4 4.7 -2 3 C-1.34 2.67 -0.68 2.34 0 2 C0 1.34 0 0.68 0 0 Z " fill="#E5F0F8" transform="translate(188,161)" />
<path d="M0 0 C2.97 0.495 2.97 0.495 6 1 C6 2.32 6 3.64 6 5 C4.02 5 2.04 5 0 5 C0 3.35 0 1.7 0 0 Z " fill="#C58B39" transform="translate(244,123)" />
<path d="M0 0 C1.98 0 3.96 0 6 0 C6 0.66 6 1.32 6 2 C6.66 2 7.32 2 8 2 C8 3.32 8 4.64 8 6 C5.69 6 3.38 6 1 6 C1.99 4.68 2.98 3.36 4 2 C2.68 1.34 1.36 0.68 0 0 Z " fill="#2A4A7A" transform="translate(280,215)" />
<path d="M0 0 C0.66 0.66 1.32 1.32 2 2 C1.625 4.125 1.625 4.125 1 6 C-0.65 6.33 -2.3 6.66 -4 7 C-4.33 6.01 -4.66 5.02 -5 4 C-4.360625 3.71125 -3.72125 3.4225 -3.0625 3.125 C-0.84793921 2.17176549 -0.84793921 2.17176549 0 0 Z " fill="#193B66" transform="translate(190,166)" />
<path d="M0 0 C0.66 2.64 1.32 5.28 2 8 C-1 9 -1 9 -3.1875 8.0625 C-3.785625 7.711875 -4.38375 7.36125 -5 7 C-4.01 7 -3.02 7 -2 7 C-2.33 5.02 -2.66 3.04 -3 1 C-1 0 -1 0 0 0 Z " fill="#EBF2F9" transform="translate(197,214)" />
<path d="M0 0 C3.14688078 1.57344039 4.79965407 4.27851951 7 7 C6.67 7.66 6.34 8.32 6 9 C1.3125 5.484375 1.3125 5.484375 0 4 C0 2.68 0 1.36 0 0 Z " fill="#DFEAF5" transform="translate(213,205)" />
<path d="M0 0 C0.33 0.99 0.66 1.98 1 3 C-3.455 3.495 -3.455 3.495 -8 4 C-7.67 3.01 -7.34 2.02 -7 1 C-2.25 0 -2.25 0 0 0 Z " fill="#163E74" transform="translate(312,162)" />
<path d="M0 0 C0 2.31 0 4.62 0 7 C-1.32 6.67 -2.64 6.34 -4 6 C-4 4.35 -4 2.7 -4 1 C-1 0 -1 0 0 0 Z " fill="#2F4263" transform="translate(95,215)" />
<path d="M0 0 C3.73584906 1.47169811 3.73584906 1.47169811 5 4 C4.34 4.66 3.68 5.32 3 6 C1.35 4.35 -0.3 2.7 -2 1 C-1.34 0.67 -0.68 0.34 0 0 Z " fill="#2E466D" transform="translate(161,214)" />
<path d="M0 0 C0 0.33 0 0.66 0 1 C-4.95 2.485 -4.95 2.485 -10 4 C-7.11599467 -1.76801067 -5.91158408 -1.15661428 0 0 Z " fill="#3D3D3D" transform="translate(241,241)" />
<path d="M0 0 C0.99 0 1.98 0 3 0 C3.33 2.31 3.66 4.62 4 7 C2.68 6.67 1.36 6.34 0 6 C0 4 0 2 0 0 Z " fill="#354468" transform="translate(191,214)" />
<path d="M0 0 C-0.66 1.32 -1.32 2.64 -2 4 C-4.97 3.67 -7.94 3.34 -11 3 C-11 2.67 -11 2.34 -11 2 C-9.5422647 1.664061 -8.08378894 1.33133376 -6.625 1 C-5.40683594 0.7215625 -5.40683594 0.7215625 -4.1640625 0.4375 C-2 0 -2 0 0 0 Z " fill="#1C3357" transform="translate(341,214)" />
<path d="M0 0 C1.5625 1.1875 1.5625 1.1875 3 3 C2.6875 5.6875 2.6875 5.6875 2 8 C0 7 0 7 -1.125 3.9375 C-1.41375 2.968125 -1.7025 1.99875 -2 1 C-1.34 0.67 -0.68 0.34 0 0 Z " fill="#535353" transform="translate(158,251)" />
<path d="M0 0 C2.25245881 2.68841859 3.88213958 4.64641875 5 8 C2.525 7.01 2.525 7.01 0 6 C0 4.02 0 2.04 0 0 Z " fill="#E2E2E2" transform="translate(266,245)" />
<path d="M0 0 C0.99 0 1.98 0 3 0 C3 0.66 3 1.32 3 2 C5.31 2 7.62 2 10 2 C10 2.33 10 2.66 10 3 C5.545 3.495 5.545 3.495 1 4 C0.67 2.68 0.34 1.36 0 0 Z " fill="#E3E3E3" transform="translate(232,237)" />
<path d="M0 0 C2.64 1.65 5.28 3.3 8 5 C4 6 4 6 1.75 4.75 C1.1725 4.1725 0.595 3.595 0 3 C0 2.01 0 1.02 0 0 Z " fill="#DDE9F2" transform="translate(208,216)" />
<path d="M0 0 C1.98 0.99 1.98 0.99 4 2 C4 2.66 4 3.32 4 4 C5.32 4.33 6.64 4.66 8 5 C7.01 5.66 6.02 6.32 5 7 C0 1.125 0 1.125 0 0 Z " fill="#2F4668" transform="translate(206,212)" />
<path d="M0 0 C0 1.65 0 3.3 0 5 C-2.31 4.34 -4.62 3.68 -7 3 C-3.375 0 -3.375 0 0 0 Z " fill="#DDE9F1" transform="translate(236,176)" />
<path d="M0 0 C1.32 1.65 2.64 3.3 4 5 C3.34 6.32 2.68 7.64 2 9 C0.4375 6.1875 0.4375 6.1875 -1 3 C-0.67 2.01 -0.34 1.02 0 0 Z " fill="#2B2B2B" transform="translate(274,253)" />
<path d="M0 0 C2.86724686 0.57344937 3.8614515 0.8614515 6 3 C6 3.66 6 4.32 6 5 C3.5625 4.1875 3.5625 4.1875 1 3 C0.67 2.01 0.34 1.02 0 0 Z " fill="#1E1E1E" transform="translate(92,247)" />
</svg>