<svg width="335" height="255" viewBox="0 0 335 255" fill="none" xmlns="http://www.w3.org/2000/svg">
<g clip-path="url(#clip0_0_1)">
<path d="M39.0938 194C37.9375 194 37.0938 193.734 36.5625 193.203C36.0312 192.672 35.7656 191.828 35.7656 190.672V138.969C35.7656 137.812 36.0312 136.984 36.5625 136.484C37.0938 135.953 37.9375 135.688 39.0938 135.688H69.6094C70.4844 135.688 71.1094 136.016 71.4844 136.672C71.8906 137.328 72.0938 138.391 72.0938 139.859V142.391C72.0938 143.859 71.8906 144.922 71.4844 145.578C71.1094 146.234 70.4844 146.562 69.6094 146.562H48.6094V158.656H67.3594C68.2344 158.656 68.8594 158.984 69.2344 159.641C69.6406 160.297 69.8438 161.359 69.8438 162.828V165.406C69.8438 166.875 69.6406 167.938 69.2344 168.594C68.8594 169.25 68.2344 169.578 67.3594 169.578H48.6094V183.078H69.6562C70.5312 183.078 71.1562 183.406 71.5312 184.062C71.9375 184.719 72.1406 185.766 72.1406 187.203V189.828C72.1406 191.297 71.9375 192.359 71.5312 193.016C71.1562 193.672 70.5312 194 69.6562 194H39.0938ZM100.5 176.328C99.625 176.328 98.9844 176 98.5781 175.344C98.1719 174.688 97.9688 173.625 97.9688 172.156V171.594C97.9688 170.125 98.1719 169.062 98.5781 168.406C98.9844 167.719 99.625 167.375 100.5 167.375H117.469C118.344 167.375 118.969 167.719 119.344 168.406C119.75 169.062 119.953 170.125 119.953 171.594V172.156C119.953 173.625 119.75 174.688 119.344 175.344C118.969 176 118.344 176.328 117.469 176.328H100.5ZM173.578 194.703C164.203 194.703 157.281 192.266 152.812 187.391C148.375 182.516 146.156 174.938 146.156 164.656C146.156 144.875 155.438 134.984 174 134.984C176.531 134.984 179.156 135.234 181.875 135.734C184.594 136.234 186.859 136.938 188.672 137.844C190.516 138.719 191.438 139.703 191.438 140.797C191.438 141.578 191.125 142.609 190.5 143.891C189.875 145.141 189.125 146.25 188.25 147.219C187.406 148.188 186.656 148.672 186 148.672C185.844 148.672 185.422 148.516 184.734 148.203C183.234 147.578 181.656 147.062 180 146.656C178.375 146.219 176.297 146 173.766 146C168.859 146 165.219 147.562 162.844 150.688C160.5 153.781 159.328 158.469 159.328 164.75C159.328 171.031 160.516 175.766 162.891 178.953C165.266 182.141 168.828 183.734 173.578 183.734C176.047 183.734 178.188 183.484 180 182.984C181.844 182.484 183.641 181.844 185.391 181.062C185.484 181.031 185.766 180.922 186.234 180.734C186.703 180.516 187.047 180.406 187.266 180.406C188.078 180.406 188.859 180.891 189.609 181.859C190.359 182.797 190.969 183.875 191.438 185.094C191.906 186.281 192.141 187.141 192.141 187.672C192.141 189.203 191.109 190.5 189.047 191.562C187.016 192.625 184.547 193.422 181.641 193.953C178.766 194.453 176.078 194.703 173.578 194.703ZM219.328 194.703C212.016 194.703 206.562 192.75 202.969 188.844C199.375 184.906 197.578 179.453 197.578 172.484C197.578 164.641 199.375 158.891 202.969 155.234C206.562 151.578 211.516 149.75 217.828 149.75C222.016 149.75 225.438 150.703 228.094 152.609C230.781 154.516 232.734 157.078 233.953 160.297C235.203 163.516 235.828 167.156 235.828 171.219C235.828 171.688 235.547 172.312 234.984 173.094C234.453 173.875 233.844 174.578 233.156 175.203C232.469 175.828 231.938 176.141 231.562 176.141H210.328C210.609 179.328 211.547 181.594 213.141 182.938C214.766 184.25 217.016 184.906 219.891 184.906C221.453 184.906 222.859 184.734 224.109 184.391C225.391 184.016 226.75 183.531 228.188 182.938C229.062 182.531 229.656 182.328 229.969 182.328C230.531 182.328 231.141 182.734 231.797 183.547C232.484 184.328 233.062 185.234 233.531 186.266C234.031 187.297 234.281 188.094 234.281 188.656C234.281 189.938 233.406 191.031 231.656 191.938C229.938 192.844 227.891 193.531 225.516 194C223.172 194.469 221.109 194.703 219.328 194.703ZM223.828 167.938C223.828 165.375 223.328 163.328 222.328 161.797C221.328 160.234 219.828 159.453 217.828 159.453C213.703 159.453 211.203 162.281 210.328 167.938H223.828ZM256.5 194.703C252.531 194.703 249.5 193.594 247.406 191.375C245.344 189.125 244.312 185.719 244.312 181.156V133.859C244.312 132.047 245.984 131.141 249.328 131.141H251.672C253.391 131.141 254.641 131.375 255.422 131.844C256.234 132.281 256.641 132.953 256.641 133.859V181.297C256.641 182.578 256.875 183.5 257.344 184.062C257.812 184.625 258.594 184.906 259.688 184.906C259.969 184.906 260.391 184.844 260.953 184.719C261.109 184.688 261.266 184.656 261.422 184.625C261.578 184.594 261.75 184.578 261.938 184.578C262.406 184.578 262.828 185 263.203 185.844C263.609 186.656 263.922 187.578 264.141 188.609C264.359 189.609 264.469 190.266 264.469 190.578C264.469 193.328 261.812 194.703 256.5 194.703ZM281.344 194.703C277.375 194.703 274.344 193.594 272.25 191.375C270.188 189.125 269.156 185.719 269.156 181.156V133.859C269.156 132.047 270.828 131.141 274.172 131.141H276.516C278.234 131.141 279.484 131.375 280.266 131.844C281.078 132.281 281.484 132.953 281.484 133.859V181.297C281.484 182.578 281.719 183.5 282.188 184.062C282.656 184.625 283.438 184.906 284.531 184.906C284.812 184.906 285.234 184.844 285.797 184.719C285.953 184.688 286.109 184.656 286.266 184.625C286.422 184.594 286.594 184.578 286.781 184.578C287.25 184.578 287.672 185 288.047 185.844C288.453 186.656 288.766 187.578 288.984 188.609C289.203 189.609 289.312 190.266 289.312 190.578C289.312 193.328 286.656 194.703 281.344 194.703Z" fill="#1E2466"/>
<path d="M212 52C214.97 52 217.94 52 221 52C221 54.97 221 57.94 221 61C218.03 61 215.06 61 212 61C212 58.03 212 55.06 212 52Z" fill="#AD8D4C"/>
<path d="M212 111C214.97 111.495 214.97 111.495 218 112C218 113.32 218 114.64 218 116C216.02 116 214.04 116 212 116C212 114.35 212 112.7 212 111Z" fill="#C58B39"/>
<path d="M105 120C107.97 120 110.94 120 114 120C114 122.97 114 125.94 114 129C111.03 129 108.06 129 105 129C105 126.03 105 123.06 105 120Z" fill="#273A5F"/>
<path d="M205 19C206.98 19 208.96 19 211 19C211.33 20.98 211.66 22.96 212 25C209.69 25 207.38 25 205 25C205 23.02 205 21.04 205 19Z" fill="#C38B3B"/>
<path d="M110 29C110 29.99 110 30.98 110 32C108.02 32.33 106.04 32.66 104 33C103.67 34.32 103.34 35.64 103 37C109.27 37 115.54 37 122 37C122 37.33 122 37.66 122 38C115.4 38 108.8 38 102 38C102 35.36 102 32.72 102 30C104.64 29.67 107.28 29.34 110 29Z" fill="#203B66"/>
<path d="M106 123C107.98 123 109.96 123 112 123C112 124.98 112 126.96 112 129C110.02 129 108.04 129 106 129C106 127.02 106 125.04 106 123Z" fill="#1C3C74"/>
<path d="M103 48C108.94 48 114.88 48 121 48C121 69.45 121 90.9 121 113C115.06 113 109.12 113 103 113C103 91.55 103 70.1 103 48Z" fill="#C48B3E"/>
<path d="M212 109C214.97 109 217.94 109 221 109C221 111.97 221 114.94 221 118C218.03 118 215.06 118 212 118C212 115.03 212 112.06 212 109Z" fill="#B38E4F"/>
<path d="M135 52C152.82 52 170.64 52 189 52C189.495 60.415 189.495 60.415 190 69C190.495 69.99 190.495 69.99 191 71C192.216 71.0606 193.431 71.1212 194.684 71.1836C196.268 71.268 197.853 71.3526 199.438 71.4375C200.24 71.4768 201.042 71.5161 201.869 71.5566C207.887 71.8867 207.887 71.8867 209 73C209.16 75.6643 209.259 78.3056 209.316 80.9727C209.337 81.7703 209.358 82.5679 209.379 83.3898C209.445 85.9472 209.504 88.5048 209.562 91.0625C209.606 92.7923 209.649 94.5221 209.693 96.252C209.801 100.501 209.9 104.751 210 109C204.06 109 198.12 109 192 109C192 104.71 192 100.42 192 96C172.53 96 153.06 96 133 96C133 90.72 133 85.44 133 80C147.85 80 162.7 80 178 80C178 75.38 178 70.76 178 66C163.48 66 148.96 66 134 66C134.99 65.34 135.98 64.68 137 64C136.34 63.67 135.68 63.34 135 63C135 59.37 135 55.74 135 52Z" fill="#1C3E70"/>
<path d="M111 19C144.33 19 177.66 19 212 19C212 29.89 212 40.78 212 52C205.4 52 198.8 52 192 52C192 57.94 192 63.88 192 70C198.6 70 205.2 70 212 70C212 83.2 212 96.4 212 110C214.97 110 217.94 110 221 110C221 113.3 221 116.6 221 120C217.7 120 214.4 120 211 120C211 117.03 211 114.06 211 111C205.06 111 199.12 111 193 111C193 116.94 193 122.88 193 129C169.24 129 145.48 129 121 129C121 123.06 121 117.12 121 111C144.643 109.562 168.325 109.904 192 110C192 105.71 192 101.42 192 97C172.86 97 153.72 97 134 97C134 91.72 134 86.44 134 81C148.85 81 163.7 81 179 81C179 76.38 179 71.76 179 67C164.48 67 149.96 67 135 67C135 61.72 135 56.44 135 51C153.81 51 172.62 51 192 51C192 46.71 192 42.42 192 38C162.3 38 132.6 38 102 38C102 35.03 102 32.06 102 29C104.97 29 107.94 29 111 29C111 25.7 111 22.4 111 19Z" fill="#204070"/>
<path d="M192 70C198.6 70 205.2 70 212 70C212 83.2 212 96.4 212 110C214.97 110 217.94 110 221 110C221 113.3 221 116.6 221 120C217.7 120 214.4 120 211 120C211 117.03 211 114.06 211 111C205.06 111 199.12 111 193 111C193 116.94 193 122.88 193 129C169.24 129 145.48 129 121 129C121 123.06 121 117.12 121 111C144.643 109.562 168.325 109.904 192 110C192 105.71 192 101.42 192 97C192.33 97 192.66 97 193 97C193 101.29 193 105.58 193 110C198.94 110 204.88 110 211 110C211 97.13 211 84.26 211 71C204.73 71 198.46 71 192 71C192 70.67 192 70.34 192 70Z" fill="#C38C3F"/>
<path d="M65.008 231.312C65.008 232.816 64.656 234.112 63.952 235.2C63.28 236.256 62.16 237.232 60.592 238.128C59.536 238.768 58.304 239.248 56.896 239.568C55.488 239.888 54.064 240.048 52.624 240.048C51.152 240.048 49.328 239.568 47.152 238.608C45.584 237.84 44.336 236.928 43.408 235.872C42.512 234.816 42.064 233.664 42.064 232.416C42.064 231.552 42.256 230.928 42.64 230.544C43.024 230.128 43.648 229.92 44.512 229.92C44.96 229.92 45.424 230.112 45.904 230.496C46.384 230.848 46.672 231.2 46.768 231.552C47.216 232.864 48 233.872 49.12 234.576C50.24 235.248 51.632 235.584 53.296 235.584C55.216 235.584 56.816 235.232 58.096 234.528C59.408 233.824 60.064 232.88 60.064 231.696C60.064 230.544 59.36 229.52 57.952 228.624C56.544 227.728 55.104 227.104 53.632 226.752C51.52 226.176 49.648 225.488 48.016 224.688C46.32 223.856 45.056 222.832 44.224 221.616C43.392 220.4 42.976 219.12 42.976 217.776C42.976 216.528 43.408 215.264 44.272 213.984C45.136 212.672 46.16 211.728 47.344 211.152C47.984 210.832 49.072 210.496 50.608 210.144C52.176 209.76 53.312 209.568 54.016 209.568C54.944 209.568 55.968 209.68 57.088 209.904C58.208 210.128 59.12 210.448 59.824 210.864C61.232 211.664 62.272 212.384 62.944 213.024C63.616 213.664 63.952 214.464 63.952 215.424C63.952 216 63.728 216.512 63.28 216.96C62.864 217.408 62.128 217.632 61.072 217.632C60.816 217.632 60.56 217.52 60.304 217.296C60.048 217.072 59.728 216.736 59.344 216.288C58.832 215.616 58.336 215.168 57.856 214.944C57.376 214.784 56.672 214.608 55.744 214.416C54.848 214.224 54.048 214.128 53.344 214.128C52.576 214.128 51.776 214.288 50.944 214.608C50.112 214.928 49.408 215.392 48.832 216C48.288 216.576 48.016 217.248 48.016 218.016C48.016 218.656 48.304 219.216 48.88 219.696C49.488 220.144 50.208 220.512 51.04 220.8C52 221.184 53.04 221.52 54.16 221.808C55.632 222.256 56.832 222.672 57.76 223.056C58.72 223.408 59.648 223.856 60.544 224.4C62.112 225.328 63.248 226.288 63.952 227.28C64.656 228.24 65.008 229.584 65.008 231.312ZM75.4491 212.16C75.4491 213.088 75.4171 214.32 75.3531 215.856L75.3051 218.976C75.3051 222.016 75.5291 224.56 75.9771 226.608C76.6171 229.488 77.5771 231.712 78.8571 233.28C80.0411 234.656 81.4971 235.344 83.2251 235.344C84.5691 235.344 85.7691 234.944 86.8251 234.144C87.8811 233.312 88.6971 232.288 89.2731 231.072C90.2331 229.088 90.7131 226.64 90.7131 223.728C90.7131 221.968 90.6011 219.888 90.3771 217.488C90.1851 214.8 90.0891 212.784 90.0891 211.44C90.0891 210.736 90.5051 210.288 91.3371 210.096C92.1691 209.872 93.0331 209.76 93.9291 209.76C94.2491 209.76 94.6171 209.968 95.0331 210.384C95.4491 210.8 95.6571 211.248 95.6571 211.728C95.6571 212.688 95.6091 213.6 95.5131 214.464C95.4491 215.424 95.4171 216.096 95.4171 216.48C95.4171 217.696 95.4811 219.392 95.6091 221.568C95.6411 222.112 95.6731 222.768 95.7051 223.536C95.7371 224.304 95.7531 225.184 95.7531 226.176C95.7531 228.352 95.2251 230.528 94.1691 232.704C93.1451 234.848 91.7051 236.624 89.8491 238.032C87.9931 239.408 85.8971 240.096 83.5611 240.096C79.9771 240.096 77.1771 238.944 75.1611 236.64C73.1451 234.304 71.7691 231.296 71.0331 227.616C70.6171 225.504 70.3451 223.296 70.2171 220.992C70.1211 218.688 70.0731 215.6 70.0731 211.728C70.0731 211.216 70.3131 210.736 70.7931 210.288C71.3051 209.84 71.8491 209.616 72.4251 209.616C74.4411 209.616 75.4491 210.464 75.4491 212.16ZM122.301 213.024C122.301 212.096 122.509 211.296 122.925 210.624C123.373 209.92 124.029 209.568 124.893 209.568C125.629 209.568 126.285 209.712 126.861 210C127.437 210.288 127.725 210.768 127.725 211.44C127.725 212.752 127.661 214.592 127.533 216.96C127.405 219.264 127.341 220.976 127.341 222.096C127.341 223.856 127.405 226.208 127.533 229.152C127.661 231.968 127.725 234.032 127.725 235.344C127.725 236.4 127.709 237.184 127.677 237.696C127.677 238.208 127.389 238.72 126.813 239.232C126.269 239.712 125.421 239.952 124.269 239.952C123.661 239.952 123.133 239.856 122.685 239.664C122.269 239.44 121.981 239.2 121.821 238.944C120.317 237.12 118.125 234.016 115.245 229.632C112.013 224.736 109.373 220.992 107.325 218.4C107.581 220.704 107.709 223.52 107.709 226.848C107.709 228.32 107.677 230.24 107.613 232.608C107.581 234.944 107.517 236.48 107.421 237.216C107.293 238.144 107.005 238.864 106.557 239.376C106.141 239.856 105.469 240.096 104.541 240.096C103.837 240.096 103.309 239.904 102.957 239.52C102.637 239.104 102.445 238.4 102.381 237.408C102.349 236.096 102.429 234.128 102.621 231.504C102.653 231.088 102.701 230.368 102.765 229.344C102.829 228.32 102.861 227.408 102.861 226.608C102.861 224.4 102.749 221.872 102.525 219.024C102.333 215.888 102.237 213.568 102.237 212.064C102.237 211.296 102.509 210.704 103.053 210.288C103.629 209.872 104.285 209.664 105.021 209.664C105.661 209.664 106.333 209.824 107.037 210.144C109.789 213.6 113.517 218.752 118.221 225.6L122.733 232.512C122.765 232 122.781 231.28 122.781 230.352C122.781 228.72 122.749 226.96 122.685 225.072C122.621 223.184 122.573 221.904 122.541 221.232C122.381 218.128 122.301 215.392 122.301 213.024ZM156.18 231.312C156.18 232.816 155.828 234.112 155.124 235.2C154.452 236.256 153.332 237.232 151.764 238.128C150.708 238.768 149.476 239.248 148.068 239.568C146.66 239.888 145.236 240.048 143.796 240.048C142.324 240.048 140.5 239.568 138.324 238.608C136.756 237.84 135.508 236.928 134.58 235.872C133.684 234.816 133.236 233.664 133.236 232.416C133.236 231.552 133.428 230.928 133.812 230.544C134.196 230.128 134.82 229.92 135.684 229.92C136.132 229.92 136.596 230.112 137.076 230.496C137.556 230.848 137.844 231.2 137.94 231.552C138.388 232.864 139.172 233.872 140.292 234.576C141.412 235.248 142.804 235.584 144.468 235.584C146.388 235.584 147.988 235.232 149.268 234.528C150.58 233.824 151.236 232.88 151.236 231.696C151.236 230.544 150.532 229.52 149.124 228.624C147.716 227.728 146.276 227.104 144.804 226.752C142.692 226.176 140.82 225.488 139.188 224.688C137.492 223.856 136.228 222.832 135.396 221.616C134.564 220.4 134.148 219.12 134.148 217.776C134.148 216.528 134.58 215.264 135.444 213.984C136.308 212.672 137.332 211.728 138.516 211.152C139.156 210.832 140.244 210.496 141.78 210.144C143.348 209.76 144.484 209.568 145.188 209.568C146.084 209.568 147.028 209.68 148.02 209.904C149.012 210.128 149.86 210.448 150.564 210.864C151.972 211.664 153.012 212.384 153.684 213.024C154.356 213.664 154.692 214.464 154.692 215.424C154.692 216 154.468 216.512 154.02 216.96C153.604 217.408 152.868 217.632 151.812 217.632C151.556 217.632 151.3 217.52 151.044 217.296C150.788 217.072 150.468 216.736 150.084 216.288C149.572 215.616 149.076 215.168 148.596 214.944C148.084 214.752 147.444 214.576 146.676 214.416C145.908 214.224 145.188 214.128 144.516 214.128C143.748 214.128 142.948 214.288 142.116 214.608C141.284 214.928 140.58 215.392 140.004 216C139.46 216.576 139.188 217.248 139.188 218.016C139.188 218.656 139.476 219.216 140.052 219.696C140.66 220.144 141.38 220.512 142.212 220.8C143.172 221.184 144.212 221.52 145.332 221.808C146.804 222.256 148.004 222.672 148.932 223.056C149.892 223.408 150.82 223.856 151.716 224.4C153.284 225.328 154.42 226.288 155.124 227.28C155.828 228.24 156.18 229.584 156.18 231.312ZM158.653 212.016C158.653 210.64 159.661 209.952 161.677 209.952C162.541 209.952 164.189 209.984 166.621 210.048C169.309 210.176 171.341 210.24 172.717 210.24C173.837 210.24 175.197 210.176 176.797 210.048C177.885 209.984 178.573 209.952 178.861 209.952C180.621 210.016 182.109 210.336 183.325 210.912C183.677 211.072 183.965 211.264 184.189 211.488C184.413 211.712 184.525 212.08 184.525 212.592C184.525 213.296 184.301 213.904 183.853 214.416C183.405 214.896 182.861 215.136 182.221 215.136C181.517 215.136 180.493 215.04 179.149 214.848C177.965 214.624 176.925 214.512 176.029 214.512C175.165 214.512 174.509 214.528 174.061 214.56C173.965 215.616 173.917 218.144 173.917 222.144C173.917 226.912 174.061 231.744 174.349 236.64L174.445 238.032C174.445 239.344 173.693 240 172.189 240C171.005 240 170.205 239.728 169.789 239.184C169.373 238.608 169.165 237.744 169.165 236.592C169.165 234.32 169.101 231.488 168.973 228.096C168.845 225.28 168.781 223.28 168.781 222.096C168.781 221.296 168.877 218.848 169.069 214.752L163.453 214.8C161.661 214.8 160.413 214.64 159.709 214.32C159.005 213.968 158.653 213.2 158.653 212.016ZM203.079 240.048C200.967 240.048 199.031 239.792 197.271 239.28C195.511 238.736 194.071 237.952 192.951 236.928C190.903 235.104 189.463 233.12 188.631 230.976C187.831 228.8 187.431 226.032 187.431 222.672C187.431 221.968 187.527 221.312 187.719 220.704C187.943 220.064 188.231 219.36 188.583 218.592C188.679 218.368 188.823 218.016 189.015 217.536C189.239 217.024 189.383 216.56 189.447 216.144C190.055 215.024 191.079 213.952 192.519 212.928C193.991 211.904 195.575 211.088 197.271 210.48C198.967 209.84 200.455 209.52 201.735 209.52C207.911 209.52 212.327 211.632 214.983 215.856C216.487 218.32 217.239 220.8 217.239 223.296C217.239 226.528 216.647 229.36 215.463 231.792C214.311 234.224 212.711 236.112 210.663 237.456C209.383 238.224 208.071 238.848 206.727 239.328C205.383 239.808 204.167 240.048 203.079 240.048ZM192.423 226.224C192.391 227.984 192.759 229.44 193.527 230.592C194.327 231.712 195.575 232.944 197.271 234.288C198.551 234.768 199.447 235.088 199.959 235.248C200.471 235.408 201.031 235.488 201.639 235.488C203.719 235.488 205.559 235.056 207.159 234.192C208.759 233.328 209.991 232.144 210.855 230.64C211.751 229.136 212.199 227.456 212.199 225.6C212.199 223.168 211.927 221.248 211.383 219.84C210.839 218.432 209.863 217.168 208.455 216.048C207.719 215.44 206.775 214.992 205.623 214.704C204.503 214.416 203.303 214.272 202.023 214.272C198.951 214.272 196.567 215.36 194.871 217.536C193.207 219.68 192.391 222.576 192.423 226.224ZM243.192 213.024C243.192 212.096 243.4 211.296 243.816 210.624C244.264 209.92 244.92 209.568 245.784 209.568C246.52 209.568 247.176 209.712 247.752 210C248.328 210.288 248.616 210.768 248.616 211.44C248.616 212.752 248.552 214.592 248.424 216.96C248.296 219.264 248.232 220.976 248.232 222.096C248.232 223.856 248.296 226.208 248.424 229.152C248.552 231.968 248.616 234.032 248.616 235.344C248.616 236.4 248.6 237.184 248.568 237.696C248.568 238.208 248.28 238.72 247.704 239.232C247.16 239.712 246.312 239.952 245.16 239.952C244.552 239.952 244.024 239.856 243.576 239.664C243.16 239.44 242.872 239.2 242.712 238.944C241.208 237.12 239.016 234.016 236.136 229.632C232.904 224.736 230.264 220.992 228.216 218.4C228.472 220.704 228.6 223.52 228.6 226.848C228.6 228.32 228.568 230.24 228.504 232.608C228.472 234.944 228.408 236.48 228.312 237.216C228.184 238.144 227.896 238.864 227.448 239.376C227.032 239.856 226.36 240.096 225.432 240.096C224.728 240.096 224.2 239.904 223.848 239.52C223.528 239.104 223.336 238.4 223.272 237.408C223.24 236.096 223.32 234.128 223.512 231.504C223.544 231.088 223.592 230.368 223.656 229.344C223.72 228.32 223.752 227.408 223.752 226.608C223.752 224.4 223.64 221.872 223.416 219.024C223.224 215.888 223.128 213.568 223.128 212.064C223.128 211.296 223.4 210.704 223.944 210.288C224.52 209.872 225.176 209.664 225.912 209.664C226.552 209.664 227.224 209.824 227.928 210.144C230.68 213.6 234.408 218.752 239.112 225.6L243.624 232.512C243.656 232 243.672 231.28 243.672 230.352C243.672 228.72 243.64 226.96 243.576 225.072C243.512 223.184 243.464 221.904 243.432 221.232C243.272 218.128 243.192 215.392 243.192 213.024ZM275.343 233.904C275.951 233.904 276.399 234.144 276.687 234.624C277.007 235.072 277.167 235.568 277.167 236.112C277.167 236.784 277.055 237.264 276.831 237.552C276.639 237.808 276.239 238.08 275.631 238.368C274.351 238.976 272.911 239.408 271.311 239.664C269.743 239.92 267.775 240.048 265.407 240.048C262.559 240.048 260.367 239.568 258.831 238.608C257.327 237.616 256.335 236.384 255.855 234.912C255.375 233.44 255.135 231.728 255.135 229.776V226.752C255.135 224.672 255.183 222.672 255.279 220.752C255.407 218.832 255.647 216.592 255.999 214.032C256.223 212.496 256.831 211.392 257.823 210.72C258.815 210.016 259.903 209.664 261.087 209.664C262.367 209.664 264.127 209.632 266.367 209.568L270.543 209.52C272.239 209.52 273.487 209.568 274.287 209.664C275.247 209.856 275.951 210.08 276.399 210.336C276.879 210.56 277.119 210.96 277.119 211.536C277.119 212.176 276.895 212.8 276.447 213.408C276.031 214.016 275.391 214.32 274.527 214.32C273.535 214.32 272.111 214.256 270.255 214.128C268.399 214 267.007 213.936 266.079 213.936C264.927 213.936 263.999 213.984 263.295 214.08C262.399 214.144 261.759 214.256 261.375 214.416C260.991 214.576 260.767 214.848 260.703 215.232C260.255 218.528 260.031 220.96 260.031 222.528C260.735 222.624 261.487 222.672 262.287 222.672C263.311 222.672 265.023 222.56 267.423 222.336C269.183 222.176 270.639 222.096 271.791 222.096C272.527 222.096 273.071 222.224 273.423 222.48C273.775 222.736 273.951 223.088 273.951 223.536C273.951 224.24 273.775 224.784 273.423 225.168C273.071 225.552 272.431 225.84 271.503 226.032C270.383 226.256 268.927 226.432 267.135 226.56C265.375 226.688 263.695 226.752 262.095 226.752C261.487 226.752 260.735 226.72 259.839 226.656C259.839 228.768 259.935 230.432 260.127 231.648C260.351 232.864 260.799 233.808 261.471 234.48C262.175 235.152 263.231 235.488 264.639 235.488C267.807 235.488 270.335 235.2 272.223 234.624C273.567 234.144 274.607 233.904 275.343 233.904Z" fill="black"/>
</g>
<defs>
<clipPath id="clip0_0_1">
<rect width="335" height="255" fill="white"/>
</clipPath>
</defs>
</svg>
